<?xml version="1.0" encoding="UTF-8" standalone="no"?>
<!-- Created with Inkscape (http://www.inkscape.org/) -->

<svg
   xmlns:dc="http://purl.org/dc/elements/1.1/"
   xmlns:cc="http://creativecommons.org/ns#"
   xmlns:rdf="http://www.w3.org/1999/02/22-rdf-syntax-ns#"
   xmlns:svg="http://www.w3.org/2000/svg"
   xmlns="http://www.w3.org/2000/svg"
   xmlns:sodipodi="http://sodipodi.sourceforge.net/DTD/sodipodi-0.dtd"
   xmlns:inkscape="http://www.inkscape.org/namespaces/inkscape"
   width="29.098999mm"
   height="10.228703mm"
   viewBox="0 0 29.098999 10.228703"
   version="1.1"
   id="svg8"
   sodipodi:docname="ffgreen-blue.svg"
   inkscape:version="0.92.4 (5da689c313, 2019-01-14)">
  <defs
     id="defs2" />
  <sodipodi:namedview
     id="base"
     pagecolor="#ffffff"
     bordercolor="#666666"
     borderopacity="1.0"
     inkscape:pageopacity="0.0"
     inkscape:pageshadow="2"
     inkscape:zoom="5.6568543"
     inkscape:cx="40.255836"
     inkscape:cy="13.132349"
     inkscape:document-units="mm"
     inkscape:current-layer="layer1"
     showgrid="false"
     fit-margin-top="2.1"
     fit-margin-left="0"
     fit-margin-right="0"
     fit-margin-bottom="0"
     inkscape:window-width="1920"
     inkscape:window-height="1058"
     inkscape:window-x="0"
     inkscape:window-y="0"
     inkscape:window-maximized="1" />
  <metadata
     id="metadata5">
    <rdf:RDF>
      <cc:Work
         rdf:about="">
        <dc:format>image/svg+xml</dc:format>
        <dc:type
           rdf:resource="http://purl.org/dc/dcmitype/StillImage" />
        <dc:title />
      </cc:Work>
    </rdf:RDF>
  </metadata>
  <g
     inkscape:label="Layer 1"
     inkscape:groupmode="layer"
     id="layer1"
     transform="translate(-40.649419,-124.17509)">
    <flowRoot
       xml:space="preserve"
       id="flowRoot819"
       style="font-style:normal;font-weight:normal;font-size:40px;line-height:1.25;font-family:sans-serif;letter-spacing:0px;word-spacing:0px;fill:#000000;fill-opacity:1;stroke:none"
       transform="scale(0.26458333)"><flowRegion
         id="flowRegion821"><rect
           id="rect823"
           width="340"
           height="77.14286"
           x="-1617.1428"
           y="-594.62317" /></flowRegion><flowPara
         id="flowPara825" /></flowRoot>    <path
       style="font-style:normal;font-weight:normal;font-size:10.58333302px;line-height:1.25;font-family:sans-serif;letter-spacing:0px;word-spacing:0px;fill:#0000ff;fill-opacity:1;stroke:none;stroke-width:0.26458332"
       d="m 63.600043,127.3986 c -0.0017,0.0497 -0.0057,0.0979 -0.0057,0.14882 0,0.19315 0.01343,0.37611 0.03462,0.55294 h 5.320605 c 0.0048,-0.0846 0.0088,-0.16999 0.0088,-0.25838 v -0.44338 z"
       id="path897-5"
       inkscape:connector-curvature="0" />
    <path
       style="font-style:normal;font-weight:normal;font-size:10.58333302px;line-height:1.25;font-family:sans-serif;letter-spacing:0px;word-spacing:0px;fill:#0000ff;fill-opacity:1;stroke:none;stroke-width:0.26458332"
       d="m 64.475778,131.89839 c 0.09016,0.66052 0.330096,1.20561 0.722953,1.63298 0.513319,0.55811 1.204061,0.83716 2.072225,0.83716 0.778591,0 1.393541,-0.25149 1.844848,-0.75448 0.395838,-0.43482 0.618961,-1.00675 0.670243,-1.71566 h -0.941028 c -0.01494,0.49808 -0.159975,0.89831 -0.437182,1.1989 -0.282497,0.31006 -0.658013,0.46508 -1.126546,0.46508 -0.530545,0 -0.956014,-0.14985 -1.276408,-0.44958 -0.306634,-0.28997 -0.486447,-0.69548 -0.541569,-1.2144 z"
       id="path897-3"
       inkscape:connector-curvature="0" />
    <path
       style="font-style:normal;font-weight:normal;font-size:10.58333302px;line-height:1.25;font-family:sans-serif;letter-spacing:0px;word-spacing:0px;fill:#0000ff;fill-opacity:1;stroke:none;stroke-width:0.26458332"
       d="m 44.3118,126.35016 c -0.923286,0 -1.655369,0.26872 -2.196248,0.80615 -0.500943,0.50094 -0.76542,1.16865 -0.799435,1.99885 h 0.986503 c 0.04293,-0.64884 0.238772,-1.1448 0.588078,-1.48725 0.354844,-0.34107 0.847493,-0.5116 1.477946,-0.5116 0.36518,0 0.718303,0.0448 1.059367,0.13436 0.34451,0.0896 0.685574,0.22393 1.023193,0.40308 v -0.89917 c -0.341065,-0.1447 -0.690742,-0.25494 -1.049032,-0.33073 -0.358289,-0.0758 -0.721748,-0.11369 -1.090372,-0.11369 z"
       id="path897-56"
       inkscape:connector-curvature="0" />
    <path
       inkscape:connector-curvature="0"
       style="font-style:normal;font-weight:normal;font-size:10.58333302px;line-height:1.25;font-family:sans-serif;letter-spacing:0px;word-spacing:0px;fill:#0000ff;fill-opacity:1;stroke:none;stroke-width:0.26458332"
       d="m 56.327067,125.31346 c -0.0017,0.0497 -0.0057,0.0979 -0.0057,0.14883 0,0.19315 0.01343,0.37611 0.03462,0.55294 h 5.320606 c 0.0048,-0.0846 0.0088,-0.17 0.0088,-0.25839 v -0.44338 z"
       id="path897-5-3" />
    <path
       inkscape:connector-curvature="0"
       style="font-style:normal;font-weight:normal;font-size:10.58333302px;line-height:1.25;font-family:sans-serif;letter-spacing:0px;word-spacing:0px;fill:#0000ff;fill-opacity:1;stroke:none;stroke-width:0.26458332"
       d="m 51.940473,129.41947 c 0.09016,0.66052 0.330096,1.20561 0.722955,1.63297 0.513319,0.55811 1.204059,0.83716 2.072223,0.83716 0.778593,0 1.393541,-0.25149 1.844849,-0.75447 0.395838,-0.43483 0.618961,-1.00676 0.670243,-1.71566 h -0.941028 c -0.01495,0.49808 -0.159975,0.89831 -0.437182,1.19889 -0.282497,0.31006 -0.658013,0.46509 -1.126546,0.46509 -0.530545,0 -0.956014,-0.14986 -1.276408,-0.44959 -0.306635,-0.28996 -0.486447,-0.69548 -0.541569,-1.21439 z"
       id="path897-3-6" />
    <path
       inkscape:connector-curvature="0"
       style="font-style:normal;font-weight:normal;font-size:10.58333302px;line-height:1.25;font-family:sans-serif;letter-spacing:0px;word-spacing:0px;fill:#0000ff;fill-opacity:1;stroke:none;stroke-width:0.26458332"
       d="m 54.940446,131.64923 c -0.923286,0 -1.655369,0.26872 -2.196248,0.80615 -0.500942,0.50094 -0.76542,1.16866 -0.799434,1.99885 h 0.986503 c 0.04293,-0.64884 0.238771,-1.1448 0.588077,-1.48725 0.354845,-0.34107 0.847494,-0.5116 1.477946,-0.5116 0.36518,0 0.718303,0.0448 1.059367,0.13436 0.34451,0.0896 0.685574,0.22393 1.023194,0.40308 v -0.89917 c -0.341065,-0.1447 -0.690742,-0.25494 -1.049032,-0.33073 -0.35829,-0.0758 -0.721748,-0.11369 -1.090373,-0.11369 z"
       id="path897-56-7" />
    <path
       style="font-style:normal;font-weight:normal;font-size:10.58333302px;line-height:1.25;font-family:sans-serif;letter-spacing:0px;word-spacing:0px;fill:#0000ff;fill-opacity:1;stroke:none;stroke-width:0.26458332"
       d="m 66.53371,124.71866 v 1.69912 c 0.199309,0.34803 0.457812,0.60637 0.77618,0.77411 0.320394,0.17226 0.709689,0.25839 1.167887,0.25839 0.06546,0 0.137807,-0.005 0.217041,-0.0155 0.07924,-0.007 0.167087,-0.0189 0.26355,-0.0362 l 0.0052,-0.97668 c -0.106798,0.062 -0.223932,0.10678 -0.3514,0.13435 -0.124024,0.031 -0.261828,0.0465 -0.413412,0.0465 -0.537435,0 -0.950846,-0.1757 -1.240234,-0.5271 -0.263923,-0.32116 -0.404457,-0.77465 -0.42478,-1.35702 z"
       id="path895-3"
       inkscape:connector-curvature="0" />
    <path
       style="font-style:normal;font-weight:normal;font-size:10.58333302px;line-height:1.25;font-family:sans-serif;letter-spacing:0px;word-spacing:0px;fill:#0000ff;fill-opacity:1;stroke:none;stroke-width:0.26458332"
       d="m 57.81593,127.90649 v 5.78776 h 0.956014 v -0.89917 c 0.0013,0.002 0.0029,0.004 0.0041,0.006 v -1.69912 c -0.0017,-0.0486 -0.0041,-0.0964 -0.0041,-0.14676 v -3.04891 z"
       id="path895-7"
       inkscape:connector-curvature="0" />
    <path
       style="font-style:normal;font-weight:normal;font-size:10.58333302px;line-height:1.25;font-family:sans-serif;letter-spacing:0px;word-spacing:0px;fill:#0000ff;fill-opacity:1;stroke:none;stroke-width:0.26458332"
       d="m 61.681327,124.21711 v 3.46232 c 0,0.54778 -0.106798,0.95774 -0.320394,1.2299 -0.213596,0.27217 -0.53399,0.40825 -0.961182,0.40825 -0.513319,0 -0.918118,-0.16364 -1.214396,-0.49093 -0.21888,-0.24179 -0.356233,-0.54884 -0.413411,-0.92036 v 1.24179 c 0.220799,0.32556 0.476668,0.57315 0.769978,0.73794 0.310059,0.17225 0.666626,0.25838 1.069703,0.25838 0.664903,0 1.167887,-0.20671 1.508951,-0.62012 0.341065,-0.40997 0.511597,-1.01458 0.511597,-1.81384 v -3.49333 z"
       id="path901-3"
       inkscape:connector-curvature="0" />
    <path
       inkscape:connector-curvature="0"
       style="font-style:normal;font-weight:normal;font-size:10.58333302px;line-height:1.25;font-family:sans-serif;letter-spacing:0px;word-spacing:0px;fill:#0000ff;fill-opacity:1;stroke:none;stroke-width:0.26458332"
       d="m 63.628963,128.10036 v 5.78776 h 0.938444 v -5.78776 z"
       id="path901-6" />
    <path
       style="font-style:normal;font-weight:normal;font-size:10.58333302px;line-height:1.25;font-family:sans-serif;letter-spacing:0px;word-spacing:0px;fill:#0000ff;fill-opacity:1;stroke:none;stroke-width:0.26458332"
       d="m 48.259879,126.46387 c -0.334174,0 -0.6494,0.0259 -0.945678,0.0775 -0.296278,0.0483 -0.583944,0.12405 -0.862997,0.22737 v 0.92501 c 0.279053,-0.15158 0.55466,-0.26355 0.826823,-0.3359 0.272163,-0.0723 0.549493,-0.10852 0.831991,-0.10852 0.623562,0 1.090372,0.16365 1.400431,0.49093 0.264033,0.27577 0.414526,0.67408 0.453719,1.19217 v 0 l 0.01137,0.28061 v 0.47025 1.94304 1.9482 0.8785 h 0.950846 v -5.06946 c 0,-0.98529 -0.218763,-1.71738 -0.65629,-2.19625 -0.437527,-0.48231 -1.107598,-0.72347 -2.010214,-0.72347 z"
       id="path893-7"
       inkscape:connector-curvature="0"
       sodipodi:nodetypes="scccsscccccccccscs" />
    <path
       style="font-style:normal;font-weight:normal;font-size:10.58333302px;line-height:1.25;font-family:sans-serif;letter-spacing:0px;word-spacing:0px;fill:#0000ff;fill-opacity:1;stroke:none;stroke-width:0.26458332"
       d="m 41.320768,129.15516 c 0.0025,0.88859 0.219006,1.60213 0.650606,2.13992 0.434082,0.54088 1.005968,0.81132 1.715658,0.81132 0.427191,0 0.794094,-0.0844 1.100708,-0.25321 0.297539,-0.16381 0.542147,-0.41037 0.735872,-0.73639 v -1.58595 c -0.04553,0.50275 -0.181182,0.90763 -0.410311,1.21129 -0.282498,0.37896 -0.680407,0.56844 -1.193725,0.56844 -0.509875,0 -0.907784,-0.18948 -1.193726,-0.56844 -0.28039,-0.37613 -0.421138,-0.9054 -0.42323,-1.58698 z"
       id="path893-3"
       inkscape:connector-curvature="0" />
    <path
       style="font-style:normal;font-weight:normal;font-size:10.58333302px;line-height:1.25;font-family:sans-serif;letter-spacing:0px;word-spacing:0px;fill:#0000ff;fill-opacity:1;stroke:none;stroke-width:0.26458332"
       d="m 54.311905,126.4889 c -0.70969,0 -1.281576,0.27044 -1.715657,0.81132 -0.429017,0.53457 -0.645083,1.24144 -0.65009,2.11925 h 0.981852 c 0.0042,-0.67052 0.144521,-1.19313 0.422713,-1.56631 0.285942,-0.37896 0.683852,-0.56844 1.193726,-0.56844 0.513319,0 0.911228,0.18948 1.193726,0.56844 0.229147,0.30369 0.364795,0.7076 0.41031,1.20819 v -1.58285 c -0.193725,-0.32602 -0.438333,-0.57257 -0.735872,-0.73639 -0.306614,-0.16881 -0.673516,-0.25321 -1.100708,-0.25321 z"
       id="path893-3-3"
       inkscape:connector-curvature="0" />
  </g>
</svg>
