<?xml version="1.0" encoding="UTF-8" standalone="no"?>
<!-- Created with Inkscape (http://www.inkscape.org/) -->

<svg
   xmlns:dc="http://purl.org/dc/elements/1.1/"
   xmlns:cc="http://creativecommons.org/ns#"
   xmlns:rdf="http://www.w3.org/1999/02/22-rdf-syntax-ns#"
   xmlns:svg="http://www.w3.org/2000/svg"
   xmlns="http://www.w3.org/2000/svg"
   xmlns:sodipodi="http://sodipodi.sourceforge.net/DTD/sodipodi-0.dtd"
   xmlns:inkscape="http://www.inkscape.org/namespaces/inkscape"
   width="15.440918mm"
   height="10.290714mm"
   viewBox="0 0 15.440918 10.290714"
   version="1.1"
   id="svg8"
   inkscape:version="0.92.4 (5da689c313, 2019-01-14)"
   sodipodi:docname="ffred-blue.svg">
  <defs
     id="defs2" />
  <sodipodi:namedview
     id="base"
     pagecolor="#ffffff"
     bordercolor="#666666"
     borderopacity="1.0"
     inkscape:pageopacity="0.0"
     inkscape:pageshadow="2"
     inkscape:zoom="7.9195959"
     inkscape:cx="40.08671"
     inkscape:cy="22.580877"
     inkscape:document-units="mm"
     inkscape:current-layer="layer1"
     showgrid="false"
     fit-margin-bottom="2.1"
     fit-margin-top="0"
     fit-margin-left="0"
     fit-margin-right="0"
     inkscape:window-width="1920"
     inkscape:window-height="1058"
     inkscape:window-x="0"
     inkscape:window-y="0"
     inkscape:window-maximized="1" />
  <metadata
     id="metadata5">
    <rdf:RDF>
      <cc:Work
         rdf:about="">
        <dc:format>image/svg+xml</dc:format>
        <dc:type
           rdf:resource="http://purl.org/dc/dcmitype/StillImage" />
        <dc:title></dc:title>
      </cc:Work>
    </rdf:RDF>
  </metadata>
  <g
     inkscape:label="Layer 1"
     inkscape:groupmode="layer"
     id="layer1"
     transform="translate(-20.615944,-79.560328)">
    <path
       style="font-style:normal;font-weight:normal;font-size:10.58333302px;line-height:1.25;font-family:sans-serif;letter-spacing:0px;word-spacing:0px;fill:#0000ff;fill-opacity:1;stroke:none;stroke-width:0.26458332"
       d="m 21.598901,83.533778 v 1.611788 c 0.198973,0.345833 0.456554,0.602936 0.773596,0.769979 0.320394,0.172255 0.70969,0.258382 1.167888,0.258382 0.06546,0 0.137807,-0.0052 0.217041,-0.0155 0.07924,-0.0069 0.167087,-0.01895 0.263549,-0.03617 l 0.0052,-0.976685 c -0.106798,0.06201 -0.223931,0.1068 -0.3514,0.134359 -0.124023,0.03101 -0.261827,0.04651 -0.413411,0.04651 -0.537435,0 -0.950847,-0.1757 -1.240235,-0.5271 -0.250199,-0.30446 -0.390921,-0.726345 -0.422196,-1.265556 z"
       id="path819-3"
       inkscape:connector-curvature="0" />
    <path
       style="font-style:normal;font-weight:normal;font-size:10.58333302px;line-height:1.25;font-family:sans-serif;letter-spacing:0px;word-spacing:0px;fill:#0000ff;fill-opacity:1;stroke:none;stroke-width:0.26458332"
       d="m 20.659941,83.533778 v 5.78776 h 0.93896 v -5.78776 z"
       id="path819-3-6"
       inkscape:connector-curvature="0" />
    <path
       style="font-style:normal;font-weight:normal;font-size:10.58333302px;line-height:1.25;font-family:sans-serif;letter-spacing:0px;word-spacing:0px;fill:#0000ff;fill-opacity:1;stroke:none;stroke-width:0.26458332"
       d="m 27.387305,81.157394 c 0.0875,0.671553 0.328363,1.225157 0.726053,1.65778 0.51332,0.558105 1.204061,0.837158 2.072225,0.837158 0.778592,0 1.393542,-0.251492 1.844849,-0.754476 0.400429,-0.439865 0.623959,-1.020124 0.671794,-1.740462 h -0.941545 c -0.01071,0.509833 -0.156349,0.918062 -0.438216,1.223698 -0.282498,0.310059 -0.658014,0.465088 -1.126546,0.465088 -0.530545,0 -0.956014,-0.149862 -1.276408,-0.449585 -0.311588,-0.294654 -0.492786,-0.708149 -0.54467,-1.239201 z"
       id="path821-7"
       inkscape:connector-curvature="0" />
    <path
       style="font-style:normal;font-weight:normal;font-size:10.58333302px;line-height:1.25;font-family:sans-serif;letter-spacing:0px;word-spacing:0px;fill:#0000ff;fill-opacity:1;stroke:none;stroke-width:0.26458332"
       d="m 21.534587,86.099346 c -0.0019,0.05362 -0.0062,0.105734 -0.0062,0.160714 0,0.191264 0.01281,0.372512 0.03359,0.54777 h 5.321639 c 0.0046,-0.08296 0.0088,-0.166592 0.0088,-0.253215 v -0.455269 z"
       id="path821-5"
       inkscape:connector-curvature="0" />
    <path
       style="font-style:normal;font-weight:normal;font-size:10.58333302px;line-height:1.25;font-family:sans-serif;letter-spacing:0px;word-spacing:0px;fill:#0000ff;fill-opacity:1;stroke:none;stroke-width:0.26458332"
       d="m 33.166407,85.28012 c -0.923286,0 -1.655369,0.268717 -2.196248,0.806152 -0.500309,0.500309 -0.7639,1.167501 -0.798401,1.996261 h 0.985986 c 0.04329,-0.647513 0.238737,-1.142681 0.587561,-1.484664 0.354845,-0.341065 0.847493,-0.511597 1.477946,-0.511597 0.36518,0 0.718302,0.04479 1.059367,0.134359 0.344509,0.08957 0.685574,0.223931 1.023193,0.403076 v -0.89917 C 34.964747,85.579843 34.615069,85.4696 34.25678,85.393808 33.89849,85.318018 33.535032,85.28012 33.166407,85.28012 Z"
       id="path821-3"
       inkscape:connector-curvature="0" />
    <path
       style="font-style:normal;font-weight:normal;font-size:10.58333302px;line-height:1.25;font-family:sans-serif;letter-spacing:0px;word-spacing:0px;fill:#0000ff;fill-opacity:1;stroke:none;stroke-width:0.26458332"
       d="m 27.447249,81.157394 v 8.040853 h 0.927592 v -8.040853 z"
       id="path823-5"
       inkscape:connector-curvature="0" />
    <path
       style="font-style:normal;font-weight:normal;font-size:10.58333302px;line-height:1.25;font-family:sans-serif;letter-spacing:0px;word-spacing:0px;fill:#0000ff;fill-opacity:1;stroke:none;stroke-width:0.26458332"
       d="m 31.807177,86.490636 c -2.33e-4,0.02082 -0.0021,0.04049 -0.0021,0.0615 0,0.909506 0.218764,1.643311 0.65629,2.201416 0.440973,0.558106 1.011136,0.837159 1.71049,0.837159 0.427192,0 0.792372,-0.08441 1.09554,-0.253215 0.301868,-0.162805 0.551475,-0.413378 0.749826,-0.749825 v -1.743563 c -0.03573,0.561029 -0.176626,1.012311 -0.424264,1.351339 -0.289388,0.39963 -0.685574,0.599446 -1.188558,0.599446 -0.502984,0 -0.89917,-0.199816 -1.188558,-0.599446 -0.285943,-0.396186 -0.428914,-0.943956 -0.428914,-1.643311 0,-0.02106 0.0013,-0.04071 0.0016,-0.0615 z"
       id="path823-6"
       inkscape:connector-curvature="0" />
    <path
       style="font-style:normal;font-weight:normal;font-size:10.58333302px;line-height:1.25;font-family:sans-serif;letter-spacing:0px;word-spacing:0px;fill:#0000ff;fill-opacity:1;stroke:none;stroke-width:0.26458332"
       d="m 24.956883,86.797041 c -0.699353,0 -1.269518,0.279053 -1.71049,0.837158 -0.437527,0.558106 -0.656291,1.291912 -0.656291,2.201416 0,0.0064 4.96e-4,0.01227 5.17e-4,0.0186 h 0.981852 c -2.4e-5,-0.0064 -5.17e-4,-0.01222 -5.17e-4,-0.0186 0,-0.699354 0.142972,-1.248847 0.428915,-1.648478 0.289388,-0.396186 0.685574,-0.594279 1.188558,-0.594279 0.502984,0 0.89917,0.198093 1.188558,0.594279 0.247638,0.341976 0.388536,0.794535 0.424263,1.355989 V 87.80008 c -0.198354,-0.336523 -0.447944,-0.588787 -0.749825,-0.754992 -0.303169,-0.165365 -0.668348,-0.248047 -1.09554,-0.248047 z"
       id="path823-6-2"
       inkscape:connector-curvature="0" />
    <path
       style="font-style:normal;font-weight:normal;font-size:10.58333302px;line-height:1.25;font-family:sans-serif;letter-spacing:0px;word-spacing:0px;fill:#0000ff;fill-opacity:1;stroke:none;stroke-width:0.26458332"
       d="m 33.620214,83.024486 v 0.331246 c 0.116025,0.523762 0.336156,0.967598 0.66611,1.326534 0.08196,0.08912 0.17047,0.167993 0.261482,0.242879 v -1.900659 z"
       id="path821-7-9"
       inkscape:connector-curvature="0" />
  </g>
</svg>
