<?xml version="1.0" encoding="UTF-8" standalone="no"?>
<!-- Created with Inkscape (http://www.inkscape.org/) -->

<svg
   xmlns:dc="http://purl.org/dc/elements/1.1/"
   xmlns:cc="http://creativecommons.org/ns#"
   xmlns:rdf="http://www.w3.org/1999/02/22-rdf-syntax-ns#"
   xmlns:svg="http://www.w3.org/2000/svg"
   xmlns="http://www.w3.org/2000/svg"
   xmlns:sodipodi="http://sodipodi.sourceforge.net/DTD/sodipodi-0.dtd"
   xmlns:inkscape="http://www.inkscape.org/namespaces/inkscape"
   width="21.35787mm"
   height="10.290714mm"
   viewBox="0 0 21.35787 10.290714"
   version="1.1"
   id="svg8"
   inkscape:version="0.92.4 (5da689c313, 2019-01-14)"
   sodipodi:docname="ffblue-blue.svg">
  <defs
     id="defs2" />
  <sodipodi:namedview
     id="base"
     pagecolor="#ffffff"
     bordercolor="#666666"
     borderopacity="1.0"
     inkscape:pageopacity="0.0"
     inkscape:pageshadow="2"
     inkscape:zoom="6.5863826"
     inkscape:cx="30.856625"
     inkscape:cy="47.049002"
     inkscape:document-units="mm"
     inkscape:current-layer="text817"
     showgrid="false"
     fit-margin-top="0"
     fit-margin-left="0"
     fit-margin-right="0"
     fit-margin-bottom="2.1"
     inkscape:window-width="1920"
     inkscape:window-height="1058"
     inkscape:window-x="0"
     inkscape:window-y="0"
     inkscape:window-maximized="1" />
  <metadata
     id="metadata5">
    <rdf:RDF>
      <cc:Work
         rdf:about="">
        <dc:format>image/svg+xml</dc:format>
        <dc:type
           rdf:resource="http://purl.org/dc/dcmitype/StillImage" />
        <dc:title></dc:title>
      </cc:Work>
    </rdf:RDF>
  </metadata>
  <g
     inkscape:label="Layer 1"
     inkscape:groupmode="layer"
     id="layer1"
     transform="translate(-65.217133,-97.703189)">
    <g
       aria-label="blue"
       style="font-style:normal;font-weight:normal;font-size:10.58333302px;line-height:1.25;font-family:sans-serif;letter-spacing:0px;word-spacing:0px;fill:#000000;fill-opacity:1;stroke:none;stroke-width:0.26458332"
       id="text817">
      <path
         style="font-style:normal;font-weight:normal;font-size:10.58333302px;line-height:1.25;font-family:sans-serif;letter-spacing:0px;word-spacing:0px;fill:#0000ff;fill-opacity:1;stroke:none;stroke-width:0.26458332"
         d="m 66.127487,101.7727 c 0.04723,0.71878 0.270109,1.29812 0.66921,1.73789 0.450533,0.50354 1.065224,0.75624 1.843815,0.75758 0.868163,0.001 1.559083,-0.27675 2.073258,-0.83407 0.399249,-0.43299 0.640562,-0.98788 0.728638,-1.6614 h -0.987536 c -0.0523,0.53246 -0.234084,0.94652 -0.546737,1.24127 -0.320855,0.29908 -0.746381,0.44819 -1.276925,0.44752 -0.468532,-7.2e-4 -0.844008,-0.15614 -1.126029,-0.46664 -0.280933,-0.30554 -0.425795,-0.71351 -0.436149,-1.22215 z"
         id="path825-6"
         inkscape:connector-curvature="0" />
      <path
         style="font-style:normal;font-weight:normal;font-size:10.58333302px;line-height:1.25;font-family:sans-serif;letter-spacing:0px;word-spacing:0px;fill:#0000ff;fill-opacity:1;stroke:none;stroke-width:0.26458332"
         d="m 66.033172,104.71624 -5.17e-4,0.45166 c -1.47e-4,0.096 0.0038,0.1891 0.0093,0.2806 h 0.941028 3.389974 0.98702 c 0.02257,-0.18097 0.03638,-0.36871 0.03669,-0.56689 8.7e-5,-0.0566 -0.0037,-0.11024 -0.0057,-0.16537 z"
         id="path825-36"
         inkscape:connector-curvature="0" />
      <path
         style="font-style:normal;font-weight:normal;font-size:10.58333302px;line-height:1.25;font-family:sans-serif;letter-spacing:0px;word-spacing:0px;fill:#0000ff;fill-opacity:1;stroke:none;stroke-width:0.26458332"
         d="m 78.849843,100.21448 -0.0088,5.78779 0.948263,0.001 v -5.78728 z"
         id="path823-7"
         inkscape:connector-curvature="0" />
      <path
         style="font-style:normal;font-weight:normal;font-size:10.58333302px;line-height:1.25;font-family:sans-serif;letter-spacing:0px;word-spacing:0px;fill:#0000ff;fill-opacity:1;stroke:none;stroke-width:0.26458332"
         d="m 84.728994,98.906536 c -0.403076,-6.2e-4 -0.756456,0.0828 -1.059884,0.251147 -0.27214,0.15234 -0.512785,0.37951 -0.725537,0.672827 v 1.0728 c 0.07369,-0.26613 0.195057,-0.49449 0.36742,-0.68212 0.29678,-0.32685 0.701594,-0.48967 1.214912,-0.48887 0.427192,6.6e-4 0.747488,0.13731 0.960665,0.4098 0.03621,0.0469 0.06813,0.0988 0.09819,0.15348 v -1.240234 c -0.247592,-0.0983 -0.532067,-0.14835 -0.855762,-0.14883 z"
         id="path823-7-5"
         inkscape:connector-curvature="0" />
      <path
         style="font-style:normal;font-weight:normal;font-size:10.58333302px;line-height:1.25;font-family:sans-serif;letter-spacing:0px;word-spacing:0px;fill:#0000ff;fill-opacity:1;stroke:none;stroke-width:0.26458332"
         d="m 75.240287,97.731472 c -0.702799,-10e-4 -1.273656,0.27714 -1.71204,0.834577 -0.441828,0.557417 -0.663159,1.290877 -0.664559,2.200391 -0.0014,0.90951 0.217728,1.64368 0.65784,2.20246 0.436669,0.55853 1.006658,0.83842 1.709457,0.83975 0.423746,6.5e-4 0.788667,-0.0833 1.09554,-0.25166 0.291224,-0.15828 0.533893,-0.40157 0.730188,-0.72503 v -1.55288 c -0.05515,0.46279 -0.189277,0.84181 -0.402559,1.13637 -0.290002,0.39908 -0.686608,0.59805 -1.189592,0.59738 -0.502983,-7.7e-4 -0.897028,-0.20093 -1.182356,-0.601 -0.28877,-0.39664 -0.432565,-0.94449 -0.431499,-1.64384 0.0011,-0.69936 0.146664,-1.248784 0.436666,-1.647974 0.286552,-0.39577 0.680924,-0.593527 1.183907,-0.592727 0.502984,7.7e-4 0.899263,0.199717 1.188042,0.596347 0.210659,0.29539 0.342863,0.67271 0.397391,1.131204 v -1.551334 c -0.194236,-0.319137 -0.433698,-0.561657 -0.721403,-0.722434 -0.306359,-0.16584 -0.671277,-0.24895 -1.095023,-0.2496 z"
         id="path819-3"
         inkscape:connector-curvature="0" />
      <path
         style="font-style:normal;font-weight:normal;font-size:10.58333302px;line-height:1.25;font-family:sans-serif;letter-spacing:0px;word-spacing:0px;fill:#0000ff;fill-opacity:1;stroke:none;stroke-width:0.26458332"
         d="m 85.58736,98.189202 -0.0016,0.868164 c -3.2e-4,-5.6e-4 -7.12e-4,-0.001 -10e-4,-0.002 v 7.174784 l 0.946195,0.001 0.0124,-8.040888 z"
         id="path819-6"
         inkscape:connector-curvature="0" />
      <path
         d="m 66.337851,106.22261 -0.950845,-0.001 0.01236,-8.040878 0.950845,0.002 z"
         style="font-style:normal;font-weight:normal;font-size:10.58333302px;line-height:1.25;font-family:sans-serif;letter-spacing:0px;word-spacing:0px;fill:#0000ff;fill-opacity:1;stroke:none;stroke-width:0.26458332"
         id="path821-3-7"
         inkscape:connector-curvature="0" />
      <path
         style="font-style:normal;font-weight:normal;font-size:10.58333302px;line-height:1.25;font-family:sans-serif;letter-spacing:0px;word-spacing:0px;fill:#0000ff;fill-opacity:1;stroke:none;stroke-width:0.26458332"
         d="m 81.777767,103.33214 c -0.368625,-5.7e-4 -0.731967,0.0369 -1.090373,0.11213 -0.358406,0.0752 -0.708262,0.18502 -1.049548,0.32918 l -0.0016,0.89917 c 0.337895,-0.17862 0.679064,-0.31247 1.023711,-0.40152 0.341201,-0.0891 0.694187,-0.13337 1.059366,-0.13281 0.630452,9.7e-4 1.123109,0.17205 1.47743,0.51366 0.347731,0.34196 0.542251,0.83658 0.584977,1.4826 h 0.98702 c -0.03399,-0.82688 -0.297094,-1.49291 -0.795818,-1.99316 -0.540052,-0.53835 -1.27193,-0.80792 -2.195214,-0.80925 z"
         id="path825-3-5"
         inkscape:connector-curvature="0" />
      <path
         style="font-style:normal;font-weight:normal;font-size:10.58333302px;line-height:1.25;font-family:sans-serif;letter-spacing:0px;word-spacing:0px;fill:#0000ff;fill-opacity:1;stroke:none;stroke-width:0.26458332"
         d="m 75.746192,103.75535 c -0.07922,-0.004 -0.138918,-0.0361 -0.221175,-0.0362 -0.246678,-3.8e-4 -0.487621,0.0413 -0.729671,0.0749 l -10e-4,0.81547 c 0.222036,-0.0358 0.440558,-0.0846 0.672311,-0.0842 0.104309,1.6e-4 0.181773,0.0334 0.278536,0.0429 z"
         id="path929"
         inkscape:connector-curvature="0" />
      <path
         style="font-style:normal;font-weight:normal;font-size:10.58333302px;line-height:1.25;font-family:sans-serif;letter-spacing:0px;word-spacing:0px;fill:#0000ff;fill-opacity:1;stroke:none;stroke-width:0.26458332"
         d="m 81.773119,97.793955 v 1.240751 c 0.146783,0.26738 0.221377,0.627017 0.220659,1.081584 l -0.0057,3.46751 0.950847,0.001 0.0057,-3.50265 c 0.0012,-0.795824 -0.170307,-1.400931 -0.514181,-1.814868 -0.176465,-0.21243 -0.396338,-0.36974 -0.657324,-0.473357 z"
         id="path823-7-5-2"
         inkscape:connector-curvature="0" />
    </g>
  </g>
</svg>
