<?xml version="1.0" encoding="UTF-8" standalone="no"?>
<!-- Created with Inkscape (http://www.inkscape.org/) -->

<svg
   xmlns:dc="http://purl.org/dc/elements/1.1/"
   xmlns:cc="http://creativecommons.org/ns#"
   xmlns:rdf="http://www.w3.org/1999/02/22-rdf-syntax-ns#"
   xmlns:svg="http://www.w3.org/2000/svg"
   xmlns="http://www.w3.org/2000/svg"
   xmlns:sodipodi="http://sodipodi.sourceforge.net/DTD/sodipodi-0.dtd"
   xmlns:inkscape="http://www.inkscape.org/namespaces/inkscape"
   width="21.35787mm"
   height="10.290714mm"
   viewBox="0 0 21.35787 10.290714"
   version="1.1"
   id="svg1250"
   inkscape:version="0.92.4 (5da689c313, 2019-01-14)"
   sodipodi:docname="ffblue-green.svg">
  <defs
     id="defs1244" />
  <sodipodi:namedview
     id="base"
     pagecolor="#ffffff"
     bordercolor="#666666"
     borderopacity="1.0"
     inkscape:pageopacity="0.0"
     inkscape:pageshadow="2"
     inkscape:zoom="11.2"
     inkscape:cx="25.309654"
     inkscape:cy="26.598215"
     inkscape:document-units="mm"
     inkscape:current-layer="layer1"
     showgrid="false"
     fit-margin-top="0"
     fit-margin-left="0"
     fit-margin-right="0"
     fit-margin-bottom="2.1"
     inkscape:window-width="1920"
     inkscape:window-height="1058"
     inkscape:window-x="0"
     inkscape:window-y="0"
     inkscape:window-maximized="1" />
  <metadata
     id="metadata1247">
    <rdf:RDF>
      <cc:Work
         rdf:about="">
        <dc:format>image/svg+xml</dc:format>
        <dc:type
           rdf:resource="http://purl.org/dc/dcmitype/StillImage" />
        <dc:title />
      </cc:Work>
    </rdf:RDF>
  </metadata>
  <g
     inkscape:label="Layer 1"
     inkscape:groupmode="layer"
     id="layer1"
     transform="translate(-59.169514,-125.67343)">
    <path
       style="font-style:normal;font-weight:normal;font-size:10.58333302px;line-height:1.25;font-family:sans-serif;letter-spacing:0px;word-spacing:0px;fill:#8ce617;fill-opacity:1;stroke:none;stroke-width:0.99999994"
       d="M 46.787109 0.078125 L 46.787109 3.4375 L 46.787109 9.5507812 L 46.787109 9.7714844 C 44.894681 9.9989028 43.405839 10.74698 42.333984 12.033203 C 41.031899 13.595698 40.380859 15.880848 40.380859 18.888672 L 40.380859 32.130859 L 43.974609 32.130859 C 44.560875 31.896907 45.236098 31.779297 46.005859 31.779297 C 46.561537 31.779297 47.079976 31.835831 47.568359 31.9375 L 47.568359 28.947266 C 46.84859 28.756777 46.076684 28.654297 45.244141 28.654297 L 45.244141 28.652344 C 44.799751 28.652344 44.381132 28.686375 43.974609 28.734375 L 43.974609 19.025391 C 43.974609 16.955079 44.378255 15.399097 45.185547 14.357422 C 45.607958 13.819193 46.143673 13.426525 46.787109 13.169922 L 46.787109 21.953125 L 50.380859 21.953125 L 50.380859 12.974609 C 51.597033 13.22756 52.60943 13.787567 53.408203 14.669922 C 54.541014 15.906923 55.107422 17.59312 55.107422 19.728516 L 55.107422 13.615234 C 54.235028 12.287108 53.219399 11.297508 52.060547 10.646484 C 51.541492 10.357464 50.977401 10.14442 50.380859 9.9863281 L 50.380859 0.078125 L 46.787109 0.078125 z M 15.5 3.0878906 C 15.500004 3.0916702 15.5 3.0959566 15.5 3.1035156 C 15.5 5.746766 14.953125 7.8170421 13.859375 9.3144531 C 12.778642 10.824866 11.287761 11.580078 9.3867188 11.580078 C 7.4856769 11.580078 5.9882812 10.824866 4.8945312 9.3144531 C 4.0805042 8.1865665 3.5739325 6.7330057 3.3730469 4.9550781 L 3.3730469 7.3847656 L 0.015625 7.3847656 L 0.015625 21.902344 L 3.5507812 21.902344 L 3.5507812 23.900391 C 3.7516669 22.122463 4.2582385 20.668864 5.0722656 19.541016 C 5.8734879 18.434569 6.8944719 17.739288 8.1289062 17.443359 L 8.1289062 31.673828 L 11.664062 31.673828 L 11.664062 17.650391 C 12.600205 18.013989 13.392657 18.64034 14.037109 19.541016 C 15.130859 21.038389 15.677734 23.108703 15.677734 25.751953 L 15.677734 25.767578 L 19.408203 25.767578 L 19.408203 25.751953 C 19.408203 22.314435 18.574869 19.541033 16.908203 17.431641 C 15.596468 15.758393 13.96408 14.760024 12.021484 14.414062 C 13.88688 14.039656 15.458377 13.046506 16.730469 11.423828 C 18.397131 9.314436 19.230469 6.5410337 19.230469 3.1035156 C 19.230469 3.0997361 19.230473 3.0954497 19.230469 3.0878906 L 15.5 3.0878906 z M 60.626953 8.6660156 C 60.964805 11.174601 61.871178 13.244157 63.361328 14.865234 C 65.301431 16.974589 67.91211 18.029297 71.193359 18.029297 C 74.136066 18.029297 76.460285 17.078761 78.166016 15.177734 C 79.667301 13.528575 80.513177 11.358249 80.703125 8.6660156 L 77.142578 8.6660156 C 77.090685 10.561373 76.543071 12.083003 75.490234 13.224609 C 74.422529 14.39649 73.003259 14.982422 71.232422 14.982422 C 69.227216 14.982422 67.619141 14.416003 66.408203 13.283203 C 65.243837 12.182113 64.564206 10.640516 64.359375 8.6660156 L 60.626953 8.6660156 z M 3.5507812 11.150391 C 4.2588281 12.237463 5.1093688 13.076902 6.125 13.630859 C 6.8558477 14.033238 7.6848647 14.294741 8.5917969 14.443359 C 7.7552544 14.59779 6.9855665 14.848666 6.3027344 15.224609 C 5.2040748 15.823853 4.2903214 16.743074 3.5507812 17.964844 L 3.5507812 11.150391 z M 27.496094 12.445312 L 27.496094 16.072266 L 23.960938 16.072266 L 23.960938 30.589844 L 27.496094 30.589844 L 27.496094 23.332031 L 31.03125 23.332031 L 34.566406 23.332031 L 34.566406 19.705078 L 31.03125 19.705078 L 31.03125 16.072266 L 31.03125 12.445312 L 27.496094 12.445312 z M 60.455078 18.666016 C 60.446763 18.880693 60.429688 19.090087 60.429688 19.310547 C 60.429688 19.994604 60.474585 20.643541 60.544922 21.273438 L 80.673828 21.273438 C 80.687434 20.993752 80.703125 20.714474 80.703125 20.423828 L 80.703125 18.666016 L 64.179688 18.666016 L 60.455078 18.666016 z M 72.587891 21.59375 C 69.09831 21.59375 66.33138 22.609394 64.287109 24.640625 C 62.385364 26.54237 61.386876 29.081053 61.265625 32.238281 L 64.990234 32.238281 C 65.14648 29.764316 65.888667 27.876304 67.216797 26.574219 C 68.557943 25.285135 70.419924 24.640625 72.802734 24.640625 C 74.182942 24.640625 75.51758 24.809943 76.806641 25.148438 C 78.108726 25.487083 79.397788 25.994773 80.673828 26.671875 L 80.673828 23.273438 C 79.384767 22.72654 78.063151 22.309888 76.708984 22.023438 C 75.354817 21.736949 73.981119 21.59375 72.587891 21.59375 z "
       transform="matrix(0.26458333,0,0,0.26458333,59.169514,125.67343)"
       id="path838-6" />
  </g>
</svg>
