<?xml version="1.0" encoding="UTF-8" standalone="no"?>
<!-- Created with Inkscape (http://www.inkscape.org/) -->

<svg
   xmlns:dc="http://purl.org/dc/elements/1.1/"
   xmlns:cc="http://creativecommons.org/ns#"
   xmlns:rdf="http://www.w3.org/1999/02/22-rdf-syntax-ns#"
   xmlns:svg="http://www.w3.org/2000/svg"
   xmlns="http://www.w3.org/2000/svg"
   xmlns:sodipodi="http://sodipodi.sourceforge.net/DTD/sodipodi-0.dtd"
   xmlns:inkscape="http://www.inkscape.org/namespaces/inkscape"
   width="21.35787mm"
   height="10.290714mm"
   viewBox="0 0 21.35787 10.290714"
   version="1.1"
   id="svg1250"
   inkscape:version="0.92.4 (5da689c313, 2019-01-14)"
   sodipodi:docname="ffblue-blue.svg">
  <defs
     id="defs1244" />
  <sodipodi:namedview
     id="base"
     pagecolor="#ffffff"
     bordercolor="#666666"
     borderopacity="1.0"
     inkscape:pageopacity="0.0"
     inkscape:pageshadow="2"
     inkscape:zoom="11.2"
     inkscape:cx="36.514646"
     inkscape:cy="18.741469"
     inkscape:document-units="mm"
     inkscape:current-layer="layer1"
     showgrid="false"
     fit-margin-top="0"
     fit-margin-left="0"
     fit-margin-right="0"
     fit-margin-bottom="2.1"
     inkscape:window-width="1920"
     inkscape:window-height="1058"
     inkscape:window-x="0"
     inkscape:window-y="0"
     inkscape:window-maximized="1" />
  <metadata
     id="metadata1247">
    <rdf:RDF>
      <cc:Work
         rdf:about="">
        <dc:format>image/svg+xml</dc:format>
        <dc:type
           rdf:resource="http://purl.org/dc/dcmitype/StillImage" />
        <dc:title />
      </cc:Work>
    </rdf:RDF>
  </metadata>
  <g
     inkscape:label="Layer 1"
     inkscape:groupmode="layer"
     id="layer1"
     transform="translate(-59.169514,-125.67343)">
    <path
       style="font-style:normal;font-weight:normal;font-size:10.58333302px;line-height:1.25;font-family:sans-serif;letter-spacing:0px;word-spacing:0px;fill:#174be6;fill-opacity:1;stroke:none;stroke-width:0.26458332"
       d="m 61.32039,130.21271 v 3.84111 h 0.935343 v -3.84111 z"
       id="path838-6"
       inkscape:connector-curvature="0" />
    <path
       inkscape:connector-curvature="0"
       style="font-style:normal;font-weight:normal;font-size:10.58333302px;line-height:1.25;font-family:sans-serif;letter-spacing:0px;word-spacing:0px;fill:#174be6;fill-opacity:1;stroke:none;stroke-width:0.26458332"
       d="m 59.173897,127.62728 v 3.84111 h 0.935343 v -3.84111 z"
       id="path838-6-7" />
    <path
       style="font-style:normal;font-weight:normal;font-size:10.58333302px;line-height:1.25;font-family:sans-serif;letter-spacing:0px;word-spacing:0px;fill:#174be6;fill-opacity:1;stroke:none;stroke-width:0.26458332"
       d="m 63.270583,126.49067 c 10e-7,0.001 0,0.002 0,0.004 0,0.69936 -0.144694,1.24713 -0.434082,1.64332 -0.285944,0.39963 -0.680406,0.59944 -1.18339,0.59944 -0.502984,0 -0.89917,-0.19981 -1.188558,-0.59944 -0.215378,-0.29842 -0.349409,-0.68301 -0.40256,-1.15342 v 1.57044 c 0.195669,0.32326 0.437434,0.56647 0.728121,0.72502 0.306613,0.16881 0.671795,0.25322 1.095541,0.25322 0.7028,0 1.272962,-0.27905 1.71049,-0.83716 0.440971,-0.55811 0.661458,-1.29191 0.661458,-2.20142 0,-0.001 10e-7,-0.002 0,-0.004 z"
       id="path838-3-5"
       inkscape:connector-curvature="0" />
    <path
       inkscape:connector-curvature="0"
       style="font-style:normal;font-weight:normal;font-size:10.58333302px;line-height:1.25;font-family:sans-serif;letter-spacing:0px;word-spacing:0px;fill:#174be6;fill-opacity:1;stroke:none;stroke-width:0.26458332"
       d="m 63.31783,132.49105 c 0,-0.001 0,-0.002 0,-0.004 0,-0.69936 -0.144694,-1.24713 -0.434082,-1.64331 -0.285944,-0.39963 -0.680407,-0.59945 -1.183391,-0.59945 -0.502984,0 -0.89917,0.19982 -1.188558,0.59945 -0.215378,0.29841 -0.349408,0.683 -0.402559,1.15341 v -1.57044 c 0.19567,-0.32326 0.437435,-0.56647 0.728122,-0.72502 0.306612,-0.16881 0.671793,-0.25322 1.09554,-0.25322 0.7028,0 1.272962,0.27905 1.71049,0.83716 0.440972,0.55811 0.661459,1.29191 0.661459,2.20142 0,10e-4 0,0.002 0,0.004 z"
       id="path838-3-5-3" />
    <path
       style="font-style:normal;font-weight:normal;font-size:10.58333302px;line-height:1.25;font-family:sans-serif;letter-spacing:0px;word-spacing:0px;fill:#174be6;fill-opacity:1;stroke:none;stroke-width:0.26458332"
       d="m 65.509185,129.92608 v 3.84111 h 0.935343 v -3.84111 z"
       id="path838-6-5"
       inkscape:connector-curvature="0" />
    <path
       style="font-style:normal;font-weight:normal;font-size:10.58333302px;line-height:1.25;font-family:sans-serif;letter-spacing:0px;word-spacing:0px;fill:#174be6;fill-opacity:1;stroke:none;stroke-width:0.26458332"
       d="m 66.444528,129.92608 v 1.92081 h 0.935343 v -1.92081 z"
       id="path838-6-5-6"
       inkscape:connector-curvature="0" />
    <path
       style="font-style:normal;font-weight:normal;font-size:10.58333302px;line-height:1.25;font-family:sans-serif;letter-spacing:0px;word-spacing:0px;fill:#174be6;fill-opacity:1;stroke:none;stroke-width:0.26458332"
       d="m 67.379871,130.88726 v 0.95963 h 0.935343 v -0.95963 z"
       id="path838-6-5-6-3"
       inkscape:connector-curvature="0" />
    <path
       inkscape:connector-curvature="0"
       style="font-style:normal;font-weight:normal;font-size:10.58333302px;line-height:1.25;font-family:sans-serif;letter-spacing:0px;word-spacing:0px;fill:#174be6;fill-opacity:1;stroke:none;stroke-width:0.26458332"
       d="m 66.444528,128.96645 v 0.95963 h 0.935343 v -0.95963 z"
       id="path838-6-5-6-3-7" />
    <path
       style="font-style:normal;font-weight:normal;font-size:10.58333302px;line-height:1.25;font-family:sans-serif;letter-spacing:0px;word-spacing:0px;fill:#174be6;fill-opacity:1;stroke:none;stroke-width:0.26458332"
       d="m 71.548481,125.69411 v 0.88883 1.61747 3.28146 h 0.950846 v -5.78776 z"
       id="path842-5"
       inkscape:connector-curvature="0" />
    <path
       style="font-style:normal;font-weight:normal;font-size:10.58333302px;line-height:1.25;font-family:sans-serif;letter-spacing:0px;word-spacing:0px;fill:#174be6;fill-opacity:1;stroke:none;stroke-width:0.26458332"
       d="m 71.884378,128.23733 c -0.664903,0 -1.16961,0.2067 -1.514119,0.62011 -0.34451,0.41341 -0.516765,1.01803 -0.516765,1.81385 v 3.50366 h 0.950847 v -3.46749 c 0,-0.54777 0.106798,-0.95946 0.320394,-1.23507 0.213596,-0.27216 0.53399,-0.40824 0.961181,-0.40824 0.51332,0 0.918118,0.16364 1.214396,0.49092 0.299723,0.32729 0.449585,0.77343 0.449585,1.33842 v -1.61747 c -0.230821,-0.3514 -0.499539,-0.61323 -0.806152,-0.78548 -0.303168,-0.16881 -0.65629,-0.25321 -1.059367,-0.25321 z"
       id="path842-3"
       inkscape:connector-curvature="0" />
    <path
       style="font-style:normal;font-weight:normal;font-size:10.58333302px;line-height:1.25;font-family:sans-serif;letter-spacing:0px;word-spacing:0px;fill:#174be6;fill-opacity:1;stroke:none;stroke-width:0.26458332"
       d="m 75.164779,130.6124 c -0.0022,0.0568 -0.0067,0.1122 -0.0067,0.17053 0,0.18099 0.01188,0.35269 0.03049,0.51935 h 5.325773 c 0.0036,-0.074 0.0078,-0.14789 0.0078,-0.22479 v -0.46509 h -4.371827 z"
       id="path844-2"
       inkscape:connector-curvature="0" />
    <path
       style="font-style:normal;font-weight:normal;font-size:10.58333302px;line-height:1.25;font-family:sans-serif;letter-spacing:0px;word-spacing:0px;fill:#174be6;fill-opacity:1;stroke:none;stroke-width:0.26458332"
       d="m 78.374938,131.38703 c -0.923285,0 -1.655368,0.26872 -2.196248,0.80615 -0.50317,0.50317 -0.767354,1.17487 -0.799435,2.01022 h 0.98547 c 0.04134,-0.65457 0.23771,-1.15411 0.589111,-1.49862 0.354845,-0.34107 0.847494,-0.5116 1.477946,-0.5116 0.36518,0 0.718303,0.0448 1.059367,0.13436 0.34451,0.0896 0.685574,0.22393 1.023193,0.40308 v -0.89917 c -0.341064,-0.1447 -0.690741,-0.25494 -1.049031,-0.33073 -0.35829,-0.0758 -0.721748,-0.11369 -1.090373,-0.11369 z"
       id="path844-6"
       inkscape:connector-curvature="0" />
    <path
       style="font-style:normal;font-weight:normal;font-size:10.58333302px;line-height:1.25;font-family:sans-serif;letter-spacing:0px;word-spacing:0px;fill:#174be6;fill-opacity:1;stroke:none;stroke-width:0.26458332"
       d="m 75.210322,127.96657 c 0.08939,0.66373 0.329201,1.2113 0.72347,1.64021 0.513319,0.5581 1.204061,0.83715 2.072225,0.83715 0.778591,0 1.393541,-0.25149 1.844849,-0.75447 0.397215,-0.43634 0.621019,-1.01057 0.671276,-1.72289 h -0.942061 c -0.01373,0.50148 -0.15862,0.90407 -0.437183,1.20612 -0.282497,0.31006 -0.658012,0.46509 -1.126546,0.46509 -0.530544,0 -0.956014,-0.14986 -1.276408,-0.44958 -0.308072,-0.29133 -0.48789,-0.69921 -0.542085,-1.22163 z"
       id="path844-1"
       inkscape:connector-curvature="0" />
    <path
       style="font-style:normal;font-weight:normal;font-size:10.58333302px;line-height:1.25;font-family:sans-serif;letter-spacing:0px;word-spacing:0px;fill:#174be6;fill-opacity:1;stroke:none;stroke-width:0.26458332"
       d="m 71.140237,133.25459 c -0.117578,0 -0.228337,0.009 -0.335896,0.0217 v 0.89866 c 0.155116,-0.0619 0.333769,-0.0935 0.537435,-0.0935 0.147023,0 0.284193,0.015 0.413411,0.0419 v -0.79117 c -0.190439,-0.0504 -0.394673,-0.0775 -0.61495,-0.0775 z"
       id="path842-5-8"
       inkscape:connector-curvature="0" />
  </g>
</svg>
