<?xml version="1.0" encoding="UTF-8" standalone="no"?>
<!-- Created with Inkscape (http://www.inkscape.org/) -->

<svg
   xmlns:dc="http://purl.org/dc/elements/1.1/"
   xmlns:cc="http://creativecommons.org/ns#"
   xmlns:rdf="http://www.w3.org/1999/02/22-rdf-syntax-ns#"
   xmlns:svg="http://www.w3.org/2000/svg"
   xmlns="http://www.w3.org/2000/svg"
   xmlns:sodipodi="http://sodipodi.sourceforge.net/DTD/sodipodi-0.dtd"
   xmlns:inkscape="http://www.inkscape.org/namespaces/inkscape"
   width="29.098999mm"
   height="10.228703mm"
   viewBox="0 0 29.098999 10.228703"
   version="1.1"
   id="svg2670"
   inkscape:version="0.92.4 (5da689c313, 2019-01-14)"
   sodipodi:docname="ffgreen-blue.svg">
  <defs
     id="defs2664" />
  <sodipodi:namedview
     id="base"
     pagecolor="#ffffff"
     bordercolor="#666666"
     borderopacity="1.0"
     inkscape:pageopacity="0.0"
     inkscape:pageshadow="2"
     inkscape:zoom="7.9195959"
     inkscape:cx="37.92927"
     inkscape:cy="32.096728"
     inkscape:document-units="mm"
     inkscape:current-layer="layer1"
     showgrid="false"
     fit-margin-top="2.1"
     fit-margin-left="0"
     fit-margin-right="0"
     fit-margin-bottom="0"
     inkscape:window-width="1920"
     inkscape:window-height="1058"
     inkscape:window-x="0"
     inkscape:window-y="0"
     inkscape:window-maximized="1" />
  <metadata
     id="metadata2667">
    <rdf:RDF>
      <cc:Work
         rdf:about="">
        <dc:format>image/svg+xml</dc:format>
        <dc:type
           rdf:resource="http://purl.org/dc/dcmitype/StillImage" />
        <dc:title />
      </cc:Work>
    </rdf:RDF>
  </metadata>
  <g
     inkscape:label="Layer 1"
     inkscape:groupmode="layer"
     id="layer1"
     transform="translate(-51.988702,-90.15723)">
    <path
       style="font-style:normal;font-weight:normal;font-size:10.58333302px;line-height:1.25;font-family:sans-serif;letter-spacing:0px;word-spacing:0px;fill:#0000ff;fill-opacity:1;stroke:none;stroke-width:0.26458332"
       d="m 60.884717,91.412115 c -0.334174,0 -0.6494,0.0258 -0.945678,0.0775 -0.296279,0.04823 -0.583944,0.124028 -0.862997,0.227379 v 0.925008 c 0.279053,-0.151584 0.55466,-0.263549 0.826823,-0.335897 0.272163,-0.07235 0.549493,-0.10852 0.831991,-0.10852 0.623563,0 1.090372,0.163643 1.400432,0.490926 0.310058,0.323839 0.465087,0.814765 0.465087,1.472778 v 0.06253 h 0.0031 v 1.963187 h -0.0031 v 0.387573 1.948202 0.878499 h 0.950846 v -5.069458 c 0,-0.985297 -0.218763,-1.717379 -0.65629,-2.196248 -0.437526,-0.482313 -1.107597,-0.723469 -2.010214,-0.723469 z"
       id="path846-7"
       inkscape:connector-curvature="0" />
    <path
       style="font-style:normal;font-weight:normal;font-size:10.58333302px;line-height:1.25;font-family:sans-serif;letter-spacing:0px;word-spacing:0px;fill:#0000ff;fill-opacity:1;stroke:none;stroke-width:0.26458332"
       d="m 59.391785,97.373474 c -10e-7,-0.0012 0,-0.0024 0,-0.0036 0,-0.699354 0.144694,-1.247125 0.434082,-1.643311 0.285944,-0.39963 0.680406,-0.599446 1.18339,-0.599446 0.502984,0 0.899171,0.199816 1.188559,0.599446 0.215378,0.298416 0.349409,0.683005 0.402559,1.153418 v -1.570445 c -0.195669,-0.323253 -0.437433,-0.566465 -0.728121,-0.725021 -0.306612,-0.16881 -0.671795,-0.253214 -1.095541,-0.253214 -0.7028,0 -1.272962,0.279052 -1.71049,0.837158 -0.440971,0.558106 -0.661458,1.291911 -0.661458,2.201416 0,0.0012 -10e-7,0.0024 0,0.0036 z"
       id="path838-3-5-9"
       inkscape:connector-curvature="0" />
    <path
       style="font-style:normal;font-weight:normal;font-size:10.58333302px;line-height:1.25;font-family:sans-serif;letter-spacing:0px;word-spacing:0px;fill:#0000ff;fill-opacity:1;stroke:none;stroke-width:0.26458332"
       d="m 59.391785,93.245596 c -10e-7,0.0012 0,0.0024 0,0.0036 0,0.699354 0.144694,1.247125 0.434082,1.643311 0.285944,0.39963 0.680406,0.599446 1.18339,0.599446 0.502984,0 0.899172,-0.199816 1.18856,-0.599446 0.215378,-0.298416 0.349409,-0.683005 0.402558,-1.153418 v 1.570446 c -0.195669,0.323253 -0.437433,0.566465 -0.728121,0.725021 -0.306611,0.16881 -0.671795,0.253214 -1.095541,0.253214 -0.7028,0 -1.272962,-0.279052 -1.71049,-0.837158 -0.440971,-0.558106 -0.661458,-1.291911 -0.661458,-2.201416 0,-0.0012 -10e-7,-0.0024 0,-0.0036 z"
       id="path838-3-5-9-3"
       inkscape:connector-curvature="0" />
    <path
       style="font-style:normal;font-weight:normal;font-size:10.58333302px;line-height:1.25;font-family:sans-serif;letter-spacing:0px;word-spacing:0px;fill:#0000ff;fill-opacity:1;stroke:none;stroke-width:0.26458332"
       d="m 59.391785,93.245596 c -0.02275,0.258749 0.0022,0.526719 0.08004,0.804731 0.01534,0.05562 0.03522,0.110053 0.05414,0.164699 0.05781,0.0016 0.115693,0.0043 0.173356,0.0022 0.288559,-0.0092 0.551655,-0.06588 0.791633,-0.165273 -0.04788,-0.09365 -0.08937,-0.18805 -0.1198,-0.284004 -0.06914,-0.210917 -0.08975,-0.415361 -0.06695,-0.613757 -0.182401,0.08131 -0.383582,0.123078 -0.605545,0.12041 -0.100649,-2e-4 -0.203126,-0.01142 -0.306868,-0.029 z"
       id="path831"
       inkscape:connector-curvature="0"
       inkscape:transform-center-x="-0.034649135"
       inkscape:transform-center-y="-0.012058251" />
    <path
       style="font-style:normal;font-weight:normal;font-size:10.58333302px;line-height:1.25;font-family:sans-serif;letter-spacing:0px;word-spacing:0px;fill:#0000ff;fill-opacity:1;stroke:none;stroke-width:0.26458332"
       d="m 59.984787,97.433903 c -0.0035,-0.01778 -0.01047,-0.03555 -0.01343,-0.05331 -0.03638,-0.219955 -0.02596,-0.425953 0.02633,-0.619519 -0.193004,0.05435 -0.398878,0.06694 -0.619202,0.03287 -0.0177,-0.0031 -0.03563,-0.0094 -0.05341,-0.01281 -0.0053,0.190255 0.0151,0.387102 0.06671,0.59234 0.205769,0.04944 0.402836,0.06778 0.593021,0.06044 z"
       id="path838-3-5-9-0"
       inkscape:connector-curvature="0"
       inkscape:transform-center-x="-0.13079586"
       inkscape:transform-center-y="-0.11980192" />
    <path
       style="font-style:normal;font-weight:normal;font-size:10.58333302px;line-height:1.25;font-family:sans-serif;letter-spacing:0px;word-spacing:0px;fill:#0000ff;fill-opacity:1;stroke:none;stroke-width:0.26458332"
       d="m 65.846684,94.314248 v 1.839681 c 0.199815,0.351399 0.45992,0.611504 0.780315,0.780314 0.320392,0.172255 0.709689,0.258382 1.167887,0.258382 0.06546,0 0.137805,-0.0052 0.21704,-0.0155 0.07924,-0.0069 0.167087,-0.01895 0.263551,-0.03617 l 0.0052,-0.976685 c -0.106799,0.06201 -0.223933,0.1068 -0.351401,0.134359 -0.124024,0.03101 -0.261827,0.04651 -0.413412,0.04651 -0.537435,0 -0.950846,-0.1757 -1.240234,-0.5271 -0.285941,-0.347955 -0.428913,-0.849217 -0.428913,-1.503785 z"
       id="path848-2-9"
       inkscape:connector-curvature="0" />
    <path
       inkscape:connector-curvature="0"
       style="font-style:normal;font-weight:normal;font-size:10.58333302px;line-height:1.25;font-family:sans-serif;letter-spacing:0px;word-spacing:0px;fill:#0000ff;fill-opacity:1;stroke:none;stroke-width:0.26458332"
       d="m 64.911373,94.314255 v 3.841109 h 0.935343 v -3.841109 z"
       id="path838-6-7-1" />
    <path
       style="font-style:normal;font-weight:normal;font-size:10.58333302px;line-height:1.25;font-family:sans-serif;letter-spacing:0px;word-spacing:0px;fill:#0000ff;fill-opacity:1;stroke:none;stroke-width:0.26458332"
       d="m 65.846716,92.393442 v 1.920813 h 0.935343 v -1.920813 z"
       id="path838-6-5-6-2"
       inkscape:connector-curvature="0" />
    <path
       style="font-style:normal;font-weight:normal;font-size:10.58333302px;line-height:1.25;font-family:sans-serif;letter-spacing:0px;word-spacing:0px;fill:#0000ff;fill-opacity:1;stroke:none;stroke-width:0.26458332"
       d="m 51.965244,94.729634 c -0.0022,0.0568 -0.0067,0.112195 -0.0067,0.170532 0,0.18099 0.01188,0.352691 0.03049,0.519348 h 5.325773 c 0.0036,-0.07402 0.0078,-0.147893 0.0078,-0.224793 v -0.465087 h -4.371826 z"
       id="path844-2"
       inkscape:connector-curvature="0" />
    <path
       style="font-style:normal;font-weight:normal;font-size:10.58333302px;line-height:1.25;font-family:sans-serif;letter-spacing:0px;word-spacing:0px;fill:#0000ff;fill-opacity:1;stroke:none;stroke-width:0.26458332"
       d="m 55.175403,95.504263 c -0.923285,0 -1.655368,0.268718 -2.196248,0.806153 -0.50317,0.503169 -0.767354,1.174866 -0.799435,2.010213 h 0.98547 c 0.04134,-0.654568 0.23771,-1.154107 0.589111,-1.498617 0.354845,-0.341064 0.847494,-0.511596 1.477946,-0.511596 0.36518,0 0.718303,0.04479 1.059367,0.134358 0.34451,0.08957 0.685574,0.223931 1.023193,0.403077 v -0.89917 c -0.341064,-0.144694 -0.690741,-0.254938 -1.049031,-0.33073 -0.35829,-0.07579 -0.721748,-0.113688 -1.090373,-0.113688 z"
       id="path844-6"
       inkscape:connector-curvature="0" />
    <path
       style="font-style:normal;font-weight:normal;font-size:10.58333302px;line-height:1.25;font-family:sans-serif;letter-spacing:0px;word-spacing:0px;fill:#0000ff;fill-opacity:1;stroke:none;stroke-width:0.26458332"
       d="m 52.010787,92.083799 c 0.08939,0.663738 0.329201,1.211308 0.72347,1.64021 0.513319,0.558105 1.204061,0.837158 2.072225,0.837158 0.778591,0 1.393541,-0.251492 1.844849,-0.754476 0.397215,-0.436335 0.621019,-1.010569 0.671276,-1.722892 h -0.942061 c -0.01373,0.501489 -0.15862,0.904075 -0.437183,1.206127 -0.282497,0.310059 -0.658012,0.465088 -1.126546,0.465088 -0.530544,0 -0.956014,-0.149862 -1.276408,-0.449585 -0.308072,-0.291329 -0.48789,-0.699207 -0.542085,-1.22163 z"
       id="path844-1"
       inkscape:connector-curvature="0" />
    <path
       style="font-style:normal;font-weight:normal;font-size:10.58333302px;line-height:1.25;font-family:sans-serif;letter-spacing:0px;word-spacing:0px;fill:#0000ff;fill-opacity:1;stroke:none;stroke-width:0.26458332"
       d="m 69.258359,94.597317 c -0.0022,0.0568 -0.0067,0.112195 -0.0067,0.170532 0,0.18099 0.01188,0.352691 0.03049,0.519348 h 5.325773 c 0.0036,-0.07402 0.0078,-0.147893 0.0078,-0.224793 v -0.465087 h -4.371826 z"
       id="path844-2-2"
       inkscape:connector-curvature="0" />
    <path
       style="font-style:normal;font-weight:normal;font-size:10.58333302px;line-height:1.25;font-family:sans-serif;letter-spacing:0px;word-spacing:0px;fill:#0000ff;fill-opacity:1;stroke:none;stroke-width:0.26458332"
       d="m 72.468518,95.371946 c -0.923285,0 -1.655368,0.268718 -2.196248,0.806153 -0.50317,0.503169 -0.767354,1.174866 -0.799435,2.010213 h 0.98547 c 0.04134,-0.654568 0.23771,-1.154107 0.589111,-1.498617 0.354845,-0.341064 0.847494,-0.511596 1.477946,-0.511596 0.36518,0 0.718303,0.04479 1.059367,0.134358 0.34451,0.08957 0.685574,0.223931 1.023193,0.403077 v -0.89917 c -0.341064,-0.144694 -0.690741,-0.254938 -1.049031,-0.33073 -0.35829,-0.07579 -0.721748,-0.113688 -1.090373,-0.113688 z"
       id="path844-6-2"
       inkscape:connector-curvature="0" />
    <path
       style="font-style:normal;font-weight:normal;font-size:10.58333302px;line-height:1.25;font-family:sans-serif;letter-spacing:0px;word-spacing:0px;fill:#0000ff;fill-opacity:1;stroke:none;stroke-width:0.26458332"
       d="m 69.303902,91.951482 c 0.08939,0.663738 0.329201,1.211308 0.72347,1.64021 0.513319,0.558105 1.204061,0.837158 2.072225,0.837158 0.778591,0 1.393541,-0.251492 1.844849,-0.754476 0.397215,-0.436335 0.621019,-1.010569 0.671276,-1.722892 h -0.942061 c -0.01373,0.501489 -0.15862,0.904075 -0.437183,1.206127 -0.282497,0.310059 -0.658012,0.465088 -1.126546,0.465088 -0.530544,0 -0.956014,-0.149862 -1.276408,-0.449585 -0.308072,-0.291329 -0.48789,-0.699207 -0.542085,-1.22163 z"
       id="path844-1-8"
       inkscape:connector-curvature="0" />
    <path
       style="font-style:normal;font-weight:normal;font-size:10.58333302px;line-height:1.25;font-family:sans-serif;letter-spacing:0px;word-spacing:0px;fill:#0000ff;fill-opacity:1;stroke:none;stroke-width:0.26458332"
       d="M 79.976249,97.969865 V 97.08103 95.463557 92.182104 h 0.950846 v 5.787761 z"
       id="path842-5-9"
       inkscape:connector-curvature="0" />
    <path
       style="font-style:normal;font-weight:normal;font-size:10.58333302px;line-height:1.25;font-family:sans-serif;letter-spacing:0px;word-spacing:0px;fill:#0000ff;fill-opacity:1;stroke:none;stroke-width:0.26458332"
       d="m 79.976248,92.181956 c 0,0.564994 -0.149862,1.011135 -0.449585,1.338419 -0.296278,0.327285 -0.701074,0.490926 -1.214395,0.490926 -0.427191,0 -0.747586,-0.136081 -0.961181,-0.408244 -0.01586,-0.02046 -0.02976,-0.04315 -0.04444,-0.06511 h -1.069703 c 0.08534,0.265133 0.203883,0.493121 0.359667,0.680062 0.344511,0.413412 0.849217,0.620117 1.51412,0.620117 0.403077,0 0.756198,-0.08441 1.059368,-0.253214 0.306613,-0.172256 0.575331,-0.434082 0.806151,-0.785482 z"
       id="path842-3-2"
       inkscape:connector-curvature="0" />
    <path
       style="font-style:normal;font-weight:normal;font-size:10.58333302px;line-height:1.25;font-family:sans-serif;letter-spacing:0px;word-spacing:0px;fill:#0000ff;fill-opacity:1;stroke:none;stroke-width:0.26458332"
       d="m 76.355799,93.537945 v 3.503662 c 0,0.436088 0.05365,0.812521 0.157096,1.133781 h 1.069703 c -0.183057,-0.273851 -0.275953,-0.662852 -0.275953,-1.169954 v -3.467489 z m 0.157615,4.63951 c 0.02088,0.06466 0.04365,0.127589 0.06873,0.187586 -0.02495,-0.0603 -0.04781,-0.122783 -0.06873,-0.187586 z m 0.07338,0.196887 c 0.02403,0.05675 0.04918,0.112299 0.077,0.164848 -0.02758,-0.05275 -0.05315,-0.107946 -0.077,-0.164848 z m 0.106452,0.216008 c 0.02127,0.03739 0.04182,0.07545 0.06511,0.110588 -0.02319,-0.03531 -0.04398,-0.07299 -0.06511,-0.110588 z"
       id="path842-3-2-3"
       inkscape:connector-curvature="0" />
    <path
       style="font-style:normal;font-weight:normal;font-size:10.58333302px;line-height:1.25;font-family:sans-serif;letter-spacing:0px;word-spacing:0px;fill:#0000ff;fill-opacity:1;stroke:none;stroke-width:0.26458332"
       d="m 79.025403,96.799394 v 0.295072 c 0.06783,0.142056 0.14669,0.272041 0.240813,0.38499 0.188248,0.225897 0.426125,0.387947 0.710033,0.490409 v -1.170471 z"
       id="path842-3-2-5"
       inkscape:connector-curvature="0" />
  </g>
</svg>
