<?xml version="1.0" encoding="UTF-8" standalone="no"?>
<!-- Created with Inkscape (http://www.inkscape.org/) -->

<svg
   xmlns:dc="http://purl.org/dc/elements/1.1/"
   xmlns:cc="http://creativecommons.org/ns#"
   xmlns:rdf="http://www.w3.org/1999/02/22-rdf-syntax-ns#"
   xmlns:svg="http://www.w3.org/2000/svg"
   xmlns="http://www.w3.org/2000/svg"
   xmlns:sodipodi="http://sodipodi.sourceforge.net/DTD/sodipodi-0.dtd"
   xmlns:inkscape="http://www.inkscape.org/namespaces/inkscape"
   width="45.875519mm"
   height="19.429754mm"
   viewBox="0 0 45.875519 19.429755"
   version="1.1"
   id="svg8"
   inkscape:version="0.92.4 (5da689c313, 2019-01-14)"
   sodipodi:docname="ffletters.svg">
  <defs
     id="defs2" />
  <sodipodi:namedview
     id="base"
     pagecolor="#ffffff"
     bordercolor="#666666"
     borderopacity="1.0"
     inkscape:pageopacity="0.0"
     inkscape:pageshadow="2"
     inkscape:zoom="7.9999999"
     inkscape:cx="71.524202"
     inkscape:cy="42.09326"
     inkscape:document-units="mm"
     inkscape:current-layer="layer1"
     showgrid="false"
     fit-margin-top="0"
     fit-margin-left="0"
     fit-margin-right="0"
     fit-margin-bottom="0"
     inkscape:window-width="1920"
     inkscape:window-height="1058"
     inkscape:window-x="0"
     inkscape:window-y="0"
     inkscape:window-maximized="1" />
  <metadata
     id="metadata5">
    <rdf:RDF>
      <cc:Work
         rdf:about="">
        <dc:format>image/svg+xml</dc:format>
        <dc:type
           rdf:resource="http://purl.org/dc/dcmitype/StillImage" />
        <dc:title />
      </cc:Work>
    </rdf:RDF>
  </metadata>
  <g
     inkscape:label="Layer 1"
     inkscape:groupmode="layer"
     id="layer1"
     transform="translate(-54.153651,-52.936792)">
    <path
       style="font-style:normal;font-weight:normal;font-size:10.58333302px;line-height:1.25;font-family:sans-serif;letter-spacing:0px;word-spacing:0px;fill:#000000;fill-opacity:1;stroke:none;stroke-width:0.26458332"
       d="m 56.300144,58.15281 v 3.841109 h 0.935343 V 58.15281 Z"
       id="path838-6"
       inkscape:connector-curvature="0" />
    <path
       inkscape:connector-curvature="0"
       style="font-style:normal;font-weight:normal;font-size:10.58333302px;line-height:1.25;font-family:sans-serif;letter-spacing:0px;word-spacing:0px;fill:#000000;fill-opacity:1;stroke:none;stroke-width:0.26458332"
       d="m 54.153651,55.567379 v 3.841109 h 0.935343 v -3.841109 z"
       id="path838-6-7" />
    <path
       style="font-style:normal;font-weight:normal;font-size:10.58333302px;line-height:1.25;font-family:sans-serif;letter-spacing:0px;word-spacing:0px;fill:#000000;fill-opacity:1;stroke:none;stroke-width:0.26458332"
       d="m 58.250337,54.430774 c 10e-7,0.0012 0,0.0024 0,0.0036 0,0.699354 -0.144694,1.247125 -0.434082,1.643311 -0.285944,0.39963 -0.680406,0.599446 -1.18339,0.599446 -0.502984,0 -0.89917,-0.199816 -1.188558,-0.599446 -0.215378,-0.298416 -0.349409,-0.683005 -0.40256,-1.153418 v 1.570446 c 0.195669,0.323253 0.437434,0.566465 0.728121,0.725021 0.306613,0.16881 0.671795,0.253214 1.095541,0.253214 0.7028,0 1.272962,-0.279052 1.71049,-0.837158 0.440971,-0.558106 0.661458,-1.291911 0.661458,-2.201416 0,-0.0012 10e-7,-0.0024 0,-0.0036 z"
       id="path838-3-5"
       inkscape:connector-curvature="0" />
    <path
       inkscape:connector-curvature="0"
       style="font-style:normal;font-weight:normal;font-size:10.58333302px;line-height:1.25;font-family:sans-serif;letter-spacing:0px;word-spacing:0px;fill:#000000;fill-opacity:1;stroke:none;stroke-width:0.26458332"
       d="m 58.297584,60.431147 c 0,-0.0012 0,-0.0024 0,-0.0036 0,-0.699354 -0.144694,-1.247124 -0.434082,-1.64331 -0.285944,-0.399631 -0.680407,-0.599447 -1.183391,-0.599447 -0.502984,0 -0.89917,0.199816 -1.188558,0.599447 -0.215378,0.298415 -0.349408,0.683005 -0.402559,1.153418 v -1.570447 c 0.19567,-0.323253 0.437435,-0.566465 0.728122,-0.72502 0.306612,-0.16881 0.671793,-0.253215 1.09554,-0.253215 0.7028,0 1.272962,0.279052 1.71049,0.837158 0.440972,0.558106 0.661459,1.291911 0.661459,2.201416 0,0.0012 0,0.0024 0,0.0036 z"
       id="path838-3-5-3" />
    <path
       style="font-style:normal;font-weight:normal;font-size:10.58333302px;line-height:1.25;font-family:sans-serif;letter-spacing:0px;word-spacing:0px;fill:#000000;fill-opacity:1;stroke:none;stroke-width:0.26458332"
       d="m 97.882682,58.238853 v 3.841109 h -0.935343 v -3.841109 z"
       id="path838-6-3"
       inkscape:connector-curvature="0" />
    <path
       inkscape:connector-curvature="0"
       style="font-style:normal;font-weight:normal;font-size:10.58333302px;line-height:1.25;font-family:sans-serif;letter-spacing:0px;word-spacing:0px;fill:#000000;fill-opacity:1;stroke:none;stroke-width:0.26458332"
       d="m 100.02917,55.653422 v 3.841109 h -0.935334 v -3.841109 z"
       id="path838-6-7-6" />
    <path
       style="font-style:normal;font-weight:normal;font-size:10.58333302px;line-height:1.25;font-family:sans-serif;letter-spacing:0px;word-spacing:0px;fill:#000000;fill-opacity:1;stroke:none;stroke-width:0.26458332"
       d="m 95.932489,54.516817 c -10e-7,0.0012 0,0.0024 0,0.0036 0,0.699354 0.144694,1.247125 0.434082,1.643311 0.285944,0.39963 0.680406,0.599446 1.18339,0.599446 0.502984,0 0.899171,-0.199816 1.188561,-0.599446 0.215384,-0.298416 0.349414,-0.683005 0.402564,-1.153418 v 1.570446 c -0.19567,0.323253 -0.437444,0.566465 -0.728124,0.725021 -0.306617,0.16881 -0.671799,0.253214 -1.095545,0.253214 -0.7028,0 -1.272962,-0.279052 -1.71049,-0.837158 -0.440971,-0.558106 -0.661458,-1.291911 -0.661458,-2.201416 0,-0.0012 -10e-7,-0.0024 0,-0.0036 z"
       id="path838-3-5-7"
       inkscape:connector-curvature="0" />
    <path
       inkscape:connector-curvature="0"
       style="font-style:normal;font-weight:normal;font-size:10.58333302px;line-height:1.25;font-family:sans-serif;letter-spacing:0px;word-spacing:0px;fill:#000000;fill-opacity:1;stroke:none;stroke-width:0.26458332"
       d="m 95.885242,60.51719 c 0,-0.0012 0,-0.0024 0,-0.0036 0,-0.699354 0.144694,-1.247124 0.434082,-1.64331 0.285944,-0.399631 0.680407,-0.599447 1.183391,-0.599447 0.502984,0 0.899167,0.199816 1.188557,0.599447 0.21538,0.298415 0.349414,0.683005 0.402564,1.153418 v -1.570447 c -0.195674,-0.323253 -0.437434,-0.566465 -0.728124,-0.72502 -0.306614,-0.16881 -0.671795,-0.253215 -1.095542,-0.253215 -0.7028,0 -1.272962,0.279052 -1.71049,0.837158 -0.440972,0.558106 -0.661459,1.291911 -0.661459,2.201416 0,0.0012 0,0.0024 0,0.0036 z"
       id="path838-3-5-3-5" />
    <path
       style="font-style:normal;font-weight:normal;font-size:10.58333302px;line-height:1.25;font-family:sans-serif;letter-spacing:0px;word-spacing:0px;fill:#000000;fill-opacity:1;stroke:none;stroke-width:0.26458332"
       d="m 60.169083,58.12459 v 3.841109 h 0.935343 V 58.12459 Z"
       id="path838-6-5"
       inkscape:connector-curvature="0" />
    <path
       style="font-style:normal;font-weight:normal;font-size:10.58333302px;line-height:1.25;font-family:sans-serif;letter-spacing:0px;word-spacing:0px;fill:#000000;fill-opacity:1;stroke:none;stroke-width:0.26458332"
       d="m 61.104426,58.12459 v 1.920813 h 0.935343 V 58.12459 Z"
       id="path838-6-5-6"
       inkscape:connector-curvature="0" />
    <path
       style="font-style:normal;font-weight:normal;font-size:10.58333302px;line-height:1.25;font-family:sans-serif;letter-spacing:0px;word-spacing:0px;fill:#000000;fill-opacity:1;stroke:none;stroke-width:0.26458332"
       d="m 62.039769,59.085771 v 0.959632 h 0.935343 v -0.959632 z"
       id="path838-6-5-6-3"
       inkscape:connector-curvature="0" />
    <path
       inkscape:connector-curvature="0"
       style="font-style:normal;font-weight:normal;font-size:10.58333302px;line-height:1.25;font-family:sans-serif;letter-spacing:0px;word-spacing:0px;fill:#000000;fill-opacity:1;stroke:none;stroke-width:0.26458332"
       d="m 61.104426,57.164958 v 0.959632 h 0.935343 v -0.959632 z"
       id="path838-6-5-6-3-7" />
    <path
       style="font-style:normal;font-weight:normal;font-size:10.58333302px;line-height:1.25;font-family:sans-serif;letter-spacing:0px;word-spacing:0px;fill:#000000;fill-opacity:1;stroke:none;stroke-width:0.26458332"
       d="m 65.846255,53.368806 v 0.888835 1.617473 3.281453 h 0.950846 v -5.787761 z"
       id="path842-5"
       inkscape:connector-curvature="0" />
    <path
       style="font-style:normal;font-weight:normal;font-size:10.58333302px;line-height:1.25;font-family:sans-serif;letter-spacing:0px;word-spacing:0px;fill:#000000;fill-opacity:1;stroke:none;stroke-width:0.26458332"
       d="m 66.182152,55.912025 c -0.664903,0 -1.16961,0.206705 -1.514119,0.620117 -0.34451,0.413412 -0.516765,1.018026 -0.516765,1.813843 v 3.503662 h 0.950847 v -3.467489 c 0,-0.54777 0.106798,-0.959459 0.320394,-1.235066 0.213596,-0.272163 0.53399,-0.408244 0.961181,-0.408244 0.51332,0 0.918118,0.163641 1.214396,0.490926 0.299723,0.327284 0.449585,0.773424 0.449585,1.338419 v -1.617472 c -0.230821,-0.3514 -0.499539,-0.613227 -0.806152,-0.785482 -0.303168,-0.168809 -0.65629,-0.253214 -1.059367,-0.253214 z"
       id="path842-3"
       inkscape:connector-curvature="0" />
    <path
       style="font-style:normal;font-weight:normal;font-size:10.58333302px;line-height:1.25;font-family:sans-serif;letter-spacing:0px;word-spacing:0px;fill:#000000;fill-opacity:1;stroke:none;stroke-width:0.26458332"
       d="m 83.91957,57.021291 v 1.839681 c 0.199815,0.351399 0.45992,0.611504 0.780315,0.780314 0.320392,0.172255 0.709689,0.258382 1.167887,0.258382 0.06546,0 0.137805,-0.0052 0.21704,-0.0155 0.07924,-0.0069 0.167087,-0.01895 0.263551,-0.03617 l 0.0052,-0.976685 c -0.106799,0.06201 -0.223933,0.1068 -0.351401,0.134359 -0.124024,0.03101 -0.261827,0.04651 -0.413412,0.04651 -0.537435,0 -0.950846,-0.1757 -1.240234,-0.5271 -0.285942,-0.347954 -0.428914,-0.849216 -0.428914,-1.503784 z"
       id="path848-2-9"
       inkscape:connector-curvature="0" />
    <path
       inkscape:connector-curvature="0"
       style="font-style:normal;font-weight:normal;font-size:10.58333302px;line-height:1.25;font-family:sans-serif;letter-spacing:0px;word-spacing:0px;fill:#000000;fill-opacity:1;stroke:none;stroke-width:0.26458332"
       d="m 82.984259,57.021298 v 3.841109 h 0.935343 v -3.841109 z"
       id="path838-6-7-1" />
    <path
       style="font-style:normal;font-weight:normal;font-size:10.58333302px;line-height:1.25;font-family:sans-serif;letter-spacing:0px;word-spacing:0px;fill:#000000;fill-opacity:1;stroke:none;stroke-width:0.26458332"
       d="m 83.919602,55.100485 v 1.920813 h 0.935343 v -1.920813 z"
       id="path838-6-5-6-2"
       inkscape:connector-curvature="0" />
    <path
       style="font-style:normal;font-weight:normal;font-size:10.58333302px;line-height:1.25;font-family:sans-serif;letter-spacing:0px;word-spacing:0px;fill:#000000;fill-opacity:1;stroke:none;stroke-width:0.26458332"
       d="m 79.163271,52.936795 c -0.334174,0 -0.6494,0.02584 -0.945678,0.07751 -0.296279,0.04823 -0.583944,0.124026 -0.862997,0.227377 v 0.925008 c 0.279053,-0.151584 0.55466,-0.263549 0.826823,-0.335897 0.272163,-0.07235 0.549493,-0.10852 0.831991,-0.10852 0.623562,0 1.090372,0.163643 1.400431,0.490926 0.310059,0.323839 0.465088,0.814765 0.465088,1.472778 v 0.06253 h 0.0031 v 1.963187 h -0.0031 v 0.387573 1.948202 0.878499 h 0.950846 V 55.85651 c 0,-0.985297 -0.218763,-1.717379 -0.65629,-2.196248 -0.437527,-0.482313 -1.107598,-0.72347 -2.010214,-0.72347 z"
       id="path846-7"
       inkscape:connector-curvature="0" />
    <path
       style="font-style:normal;font-weight:normal;font-size:10.58333302px;line-height:1.25;font-family:sans-serif;letter-spacing:0px;word-spacing:0px;fill:#000000;fill-opacity:1;stroke:none;stroke-width:0.26458332"
       d="m 77.670339,58.898152 c -10e-7,-0.0012 0,-0.0024 0,-0.0036 0,-0.699354 0.144694,-1.247125 0.434082,-1.643311 0.285944,-0.39963 0.680406,-0.599446 1.18339,-0.599446 0.502984,0 0.89917,0.199816 1.188558,0.599446 0.215378,0.298416 0.349409,0.683005 0.40256,1.153418 v -1.570446 c -0.195669,-0.323253 -0.437434,-0.566465 -0.728121,-0.725021 -0.306613,-0.16881 -0.671795,-0.253214 -1.095541,-0.253214 -0.7028,0 -1.272962,0.279052 -1.71049,0.837158 -0.440971,0.558106 -0.661458,1.291911 -0.661458,2.201416 0,0.0012 -10e-7,0.0024 0,0.0036 z"
       id="path838-3-5-9"
       inkscape:connector-curvature="0" />
    <path
       style="font-style:normal;font-weight:normal;font-size:10.58333302px;line-height:1.25;font-family:sans-serif;letter-spacing:0px;word-spacing:0px;fill:#000000;fill-opacity:1;stroke:none;stroke-width:0.26458332"
       d="m 77.670339,54.770274 c -10e-7,0.0012 0,0.0024 0,0.0036 0,0.699354 0.144694,1.247125 0.434082,1.643311 0.285944,0.39963 0.680406,0.599446 1.18339,0.599446 0.502984,0 0.899171,-0.199816 1.188559,-0.599446 0.215378,-0.298416 0.349409,-0.683005 0.402559,-1.153418 v 1.570446 c -0.195669,0.323253 -0.437433,0.566465 -0.728121,0.725021 -0.306612,0.16881 -0.671795,0.253214 -1.095541,0.253214 -0.7028,0 -1.272962,-0.279052 -1.71049,-0.837158 -0.440971,-0.558106 -0.661458,-1.291911 -0.661458,-2.201416 0,-0.0012 -10e-7,-0.0024 0,-0.0036 z"
       id="path838-3-5-9-3"
       inkscape:connector-curvature="0" />
    <path
       style="font-style:normal;font-weight:normal;font-size:10.58333302px;line-height:1.25;font-family:sans-serif;letter-spacing:0px;word-spacing:0px;fill:#000000;fill-opacity:1;stroke:none;stroke-width:0.26458332"
       d="m 77.670337,54.770324 c -0.03246,0.257709 -0.01762,0.526428 0.04971,0.807172 0.0132,0.05616 0.03105,0.111295 0.04791,0.166618 0.05771,0.0038 0.11545,0.0086 0.173151,0.0087 0.288698,0.0016 0.55374,-0.04508 0.79729,-0.135369 -0.04436,-0.09541 -0.08224,-0.191283 -0.109027,-0.288307 -0.06117,-0.213373 -0.07405,-0.418447 -0.04382,-0.615844 -0.185333,0.07438 -0.387952,0.108524 -0.609653,0.09751 -0.100571,-0.004 -0.202552,-0.01905 -0.305559,-0.04053 z"
       id="path845"
       inkscape:connector-curvature="0" />
    <path
       style="font-style:normal;font-weight:normal;font-size:10.58333302px;line-height:1.25;font-family:sans-serif;letter-spacing:0px;word-spacing:0px;fill:#000000;fill-opacity:1;stroke:none;stroke-width:0.26458332"
       d="m 78.262957,58.962385 c -0.0034,-0.01779 -0.01024,-0.03559 -0.01309,-0.05336 -0.03498,-0.220179 -0.02324,-0.426108 0.03028,-0.619333 -0.193341,0.05309 -0.399297,0.06438 -0.619398,0.02892 -0.01776,-0.0029 -0.03556,-0.0098 -0.05334,-0.01322 -0.0066,0.190218 0.01263,0.387199 0.06293,0.59276 0.20545,0.05075 0.402389,0.07037 0.592621,0.06423 z"
       id="path838-3-5-9-0"
       inkscape:connector-curvature="0"
       inkscape:transform-center-x="-0.79375004"
       inkscape:transform-center-y="2.017448" />
    <path
       style="font-style:normal;font-weight:normal;font-size:10.58333302px;line-height:1.25;font-family:sans-serif;letter-spacing:0px;word-spacing:0px;fill:#000000;fill-opacity:1;stroke:none;stroke-width:0.26458332"
       d="m 70.053166,58.34318 c -0.0022,0.0568 -0.0067,0.112195 -0.0067,0.170532 0,0.18099 0.01188,0.352691 0.03049,0.519348 h 5.325773 c 0.0036,-0.07402 0.0078,-0.147893 0.0078,-0.224793 V 58.34318 h -4.371826 z"
       id="path844-2"
       inkscape:connector-curvature="0" />
    <path
       style="font-style:normal;font-weight:normal;font-size:10.58333302px;line-height:1.25;font-family:sans-serif;letter-spacing:0px;word-spacing:0px;fill:#000000;fill-opacity:1;stroke:none;stroke-width:0.26458332"
       d="m 73.263325,59.117809 c -0.923285,0 -1.655368,0.268718 -2.196248,0.806153 -0.50317,0.503169 -0.767354,1.174866 -0.799435,2.010213 h 0.98547 c 0.04134,-0.654568 0.23771,-1.154107 0.589111,-1.498617 0.354845,-0.341064 0.847494,-0.511596 1.477946,-0.511596 0.36518,0 0.718303,0.04479 1.059367,0.134358 0.34451,0.08957 0.685574,0.223931 1.023193,0.403077 v -0.89917 c -0.341064,-0.144694 -0.690741,-0.254938 -1.049031,-0.33073 -0.35829,-0.07579 -0.721748,-0.113688 -1.090373,-0.113688 z"
       id="path844-6"
       inkscape:connector-curvature="0" />
    <path
       style="font-style:normal;font-weight:normal;font-size:10.58333302px;line-height:1.25;font-family:sans-serif;letter-spacing:0px;word-spacing:0px;fill:#000000;fill-opacity:1;stroke:none;stroke-width:0.26458332"
       d="m 70.098709,55.697345 c 0.08939,0.663738 0.329201,1.211308 0.72347,1.64021 0.513319,0.558105 1.204061,0.837158 2.072225,0.837158 0.778591,0 1.393541,-0.251492 1.844849,-0.754476 0.397215,-0.436335 0.621019,-1.010569 0.671276,-1.722892 h -0.942061 c -0.01373,0.501489 -0.15862,0.904075 -0.437183,1.206127 -0.282497,0.310059 -0.658012,0.465088 -1.126546,0.465088 -0.530544,0 -0.956014,-0.149862 -1.276408,-0.449585 -0.308072,-0.291329 -0.48789,-0.699207 -0.542085,-1.22163 z"
       id="path844-1"
       inkscape:connector-curvature="0" />
    <path
       style="font-style:normal;font-weight:normal;font-size:10.58333302px;line-height:1.25;font-family:sans-serif;letter-spacing:0px;word-spacing:0px;fill:#000000;fill-opacity:1;stroke:none;stroke-width:0.26458332"
       d="m 65.438011,60.929293 c -0.117578,0 -0.228337,0.0088 -0.335896,0.0217 v 0.898654 c 0.155116,-0.06186 0.333769,-0.09353 0.537435,-0.09353 0.147023,0 0.284193,0.01501 0.413411,0.04186 v -0.791166 c -0.190439,-0.05042 -0.394673,-0.07752 -0.61495,-0.07752 z"
       id="path842-5-8"
       inkscape:connector-curvature="0" />
    <path
       style="font-style:normal;font-weight:normal;font-size:10.58333302px;line-height:1.25;font-family:sans-serif;letter-spacing:0px;word-spacing:0px;fill:#000000;fill-opacity:1;stroke:none;stroke-width:0.26458332"
       d="m 91.785757,60.70804 v -0.888835 -1.617473 -3.281453 h 0.950846 v 5.787761 z"
       id="path842-5-9"
       inkscape:connector-curvature="0" />
    <path
       style="font-style:normal;font-weight:normal;font-size:10.58333302px;line-height:1.25;font-family:sans-serif;letter-spacing:0px;word-spacing:0px;fill:#000000;fill-opacity:1;stroke:none;stroke-width:0.26458332"
       d="m 91.785756,54.920131 c 0,0.564994 -0.149862,1.011135 -0.449585,1.338419 -0.296278,0.327285 -0.701074,0.490926 -1.214395,0.490926 -0.427191,0 -0.747586,-0.136081 -0.961181,-0.408244 -0.01586,-0.02046 -0.02976,-0.04315 -0.04444,-0.06511 h -1.069703 c 0.08534,0.265133 0.203883,0.493121 0.359667,0.680062 0.344511,0.413412 0.849217,0.620117 1.51412,0.620117 0.403077,0 0.756198,-0.08441 1.059368,-0.253214 0.306613,-0.172256 0.575331,-0.434082 0.806151,-0.785482 z"
       id="path842-3-2"
       inkscape:connector-curvature="0" />
    <path
       style="font-style:normal;font-weight:normal;font-size:10.58333302px;line-height:1.25;font-family:sans-serif;letter-spacing:0px;word-spacing:0px;fill:#000000;fill-opacity:1;stroke:none;stroke-width:0.26458332"
       d="m 88.165307,56.27612 v 3.503662 c 0,0.436088 0.05365,0.812521 0.157096,1.133781 h 1.069703 C 89.209049,60.639712 89.116153,60.250711 89.116153,59.743609 V 56.27612 Z m 0.157615,4.63951 c 0.02088,0.06466 0.04365,0.127589 0.06873,0.187586 -0.02495,-0.0603 -0.04781,-0.122783 -0.06873,-0.187586 z m 0.07338,0.196887 c 0.02403,0.05675 0.04918,0.112299 0.077,0.164848 -0.02758,-0.05275 -0.05315,-0.107946 -0.077,-0.164848 z m 0.106452,0.216008 c 0.02127,0.03739 0.04182,0.07545 0.06511,0.110588 -0.02319,-0.03531 -0.04398,-0.07299 -0.06511,-0.110588 z"
       id="path842-3-2-3"
       inkscape:connector-curvature="0" />
    <path
       style="font-style:normal;font-weight:normal;font-size:10.58333302px;line-height:1.25;font-family:sans-serif;letter-spacing:0px;word-spacing:0px;fill:#000000;fill-opacity:1;stroke:none;stroke-width:0.26458332"
       d="m 90.834911,59.537569 v 0.295072 c 0.06783,0.142056 0.14669,0.272041 0.240813,0.38499 0.188248,0.225897 0.426125,0.387947 0.710033,0.490409 v -1.170471 z"
       id="path842-3-2-5"
       inkscape:connector-curvature="0" />
    <text
       xml:space="preserve"
       style="font-style:normal;font-weight:normal;font-size:10.58333302px;line-height:1.25;font-family:sans-serif;letter-spacing:0px;word-spacing:0px;fill:#000000;fill-opacity:1;stroke:none;stroke-width:0.26458332"
       x="53.488472"
       y="70.165131"
       id="text853"><tspan
         sodipodi:role="line"
         id="tspan851"
         x="53.488472"
         y="70.165131"
         style="stroke-width:0.26458332">bluegrnd</tspan></text>
  </g>
</svg>
