<?xml version="1.0" encoding="UTF-8" standalone="no"?>
<!-- Created with Inkscape (http://www.inkscape.org/) -->

<svg
   xmlns:dc="http://purl.org/dc/elements/1.1/"
   xmlns:cc="http://creativecommons.org/ns#"
   xmlns:rdf="http://www.w3.org/1999/02/22-rdf-syntax-ns#"
   xmlns:svg="http://www.w3.org/2000/svg"
   xmlns="http://www.w3.org/2000/svg"
   xmlns:sodipodi="http://sodipodi.sourceforge.net/DTD/sodipodi-0.dtd"
   xmlns:inkscape="http://www.inkscape.org/namespaces/inkscape"
   width="159.61299mm"
   height="76.766373mm"
   viewBox="0 0 159.61299 76.766373"
   version="1.1"
   id="svg8"
   sodipodi:docname="gold-pink.svg"
   inkscape:version="0.92.4 (5da689c313, 2019-01-14)">
  <defs
     id="defs2" />
  <sodipodi:namedview
     id="base"
     pagecolor="#ffffff"
     bordercolor="#666666"
     borderopacity="1.0"
     inkscape:pageopacity="0.0"
     inkscape:pageshadow="2"
     inkscape:zoom="2.1698323"
     inkscape:cx="222.62437"
     inkscape:cy="80.446317"
     inkscape:document-units="mm"
     inkscape:current-layer="layer1"
     showgrid="false"
     inkscape:window-width="1920"
     inkscape:window-height="1058"
     inkscape:window-x="0"
     inkscape:window-y="0"
     inkscape:window-maximized="1"
     fit-margin-top="0"
     fit-margin-left="0"
     fit-margin-right="0"
     fit-margin-bottom="0" />
  <metadata
     id="metadata5">
    <rdf:RDF>
      <cc:Work
         rdf:about="">
        <dc:format>image/svg+xml</dc:format>
        <dc:type
           rdf:resource="http://purl.org/dc/dcmitype/StillImage" />
        <dc:title></dc:title>
      </cc:Work>
    </rdf:RDF>
  </metadata>
  <g
     inkscape:label="Layer 1"
     inkscape:groupmode="layer"
     id="layer1"
     transform="translate(-22.324218,-96.947052)">
    <path
       style="font-style:normal;font-weight:normal;font-size:79.32236481px;line-height:1.25;font-family:sans-serif;letter-spacing:0px;word-spacing:0px;fill:#ff00ff;fill-opacity:1;stroke:none;stroke-width:7.49502611"
       d="m 469.66602,366.41406 v 227.7793 h 26.93554 v -227.7793 z m 191.03515,0 V 455.125 c -5.66029,-9.75917 -12.83192,-16.97969 -21.51758,-21.66406 -8.58804,-4.78199 -18.93381,-7.17383 -31.03515,-7.17383 -19.81108,0 -35.96141,7.90503 -48.45313,23.71484 -12.3941,15.80982 -18.59179,36.59717 -18.59179,62.36133 0,25.76416 6.19769,46.55152 18.59179,62.36133 12.49172,15.80984 28.64205,23.71484 48.45313,23.71484 12.10134,0 22.44711,-2.34294 31.03515,-7.02734 8.68566,-4.78198 15.85729,-12.05336 21.51758,-21.8125 v 24.59375 h 26.93555 v -227.7793 z m -509.28125,59.87305 c -20.10385,0 -36.30308,7.66057 -48.59961,22.98242 C 90.523783,464.59141 84.375,484.93872 84.375,510.3125 c 0,25.2762 6.148783,45.57659 18.44531,60.89844 12.29653,15.32187 28.49576,22.98242 48.59961,22.98242 12.10135,0 22.496,-2.39184 31.18164,-7.17383 8.68565,-4.78198 15.80838,-12.00251 21.3711,-21.66406 v 13.32031 c 0,18.63998 -4.3906,32.54711 -13.17383,41.7207 -8.78324,9.27119 -22.00782,13.90625 -39.67188,13.90625 -8.0025,0 -15.85863,-1.0248 -23.56836,-3.07421 -7.70972,-2.04944 -15.51696,-5.21965 -23.42187,-9.51368 v 26.20313 c 7.90491,2.92775 16.0544,5.07511 24.44726,6.44141 8.39287,1.46386 17.32269,2.19531 26.78907,2.19531 25.56897,0 44.55119,-6.83133 56.94531,-20.49414 12.39412,-13.56521 18.58984,-34.30367 18.58984,-62.21485 V 430.24023 H 203.97266 V 455.125 c -5.56272,-9.66156 -12.68545,-16.88208 -21.3711,-21.66406 -8.68564,-4.78199 -19.08029,-7.17383 -31.18164,-7.17383 z m 198.50196,0 c -23.51955,0 -41.96395,7.61167 -55.33399,22.83594 -13.27244,15.22426 -19.91016,36.30497 -19.91016,63.24023 0,26.83767 6.63772,47.91643 19.91016,63.23828 13.37004,15.22429 31.81444,22.83789 55.33399,22.83789 23.42196,0 41.81747,-7.6136 55.1875,-22.83789 13.37002,-15.32185 20.05468,-36.40061 20.05468,-63.23828 0,-26.93526 -6.68466,-48.01597 -20.05468,-63.24023 -13.37003,-15.22427 -31.76554,-22.83594 -55.1875,-22.83594 z m -191.91407,22.54297 c 14.54113,0 25.8139,5.36847 33.81641,16.10351 8.10009,10.73507 12.14844,25.8606 12.14844,45.37891 0,19.4207 -4.04835,34.49931 -12.14844,45.23438 -8.00251,10.73506 -19.27528,16.10351 -33.81641,16.10351 -14.44354,0 -25.71436,-5.36845 -33.81445,-16.10351 -8.00251,-10.73507 -12.00391,-25.81368 -12.00391,-45.23438 0,-19.51831 4.0014,-34.64384 12.00391,-45.37891 8.10009,-10.73504 19.37091,-16.10351 33.81445,-16.10351 z m 456.72852,0 c 14.24836,0 25.47027,5.66183 33.66797,16.98242 8.19767,11.22303 12.29687,26.73971 12.29687,46.55078 0,19.81108 -4.0992,35.37665 -12.29687,46.69727 -8.1977,11.22303 -19.41961,16.83398 -33.66797,16.83398 -14.24834,0 -25.47223,-5.61095 -33.66992,-16.83398 -8.10009,-11.32062 -12.15039,-26.88619 -12.15039,-46.69727 0,-19.81107 4.0503,-35.32775 12.15039,-46.55078 8.19769,-11.32059 19.42158,-16.98242 33.66992,-16.98242 z m -264.81445,0.29297 c 14.34594,0 25.71453,5.70875 34.10742,17.12695 8.39284,11.32062 12.58984,26.69258 12.58984,46.11328 0,19.51831 -4.197,34.93722 -12.58984,46.25781 -8.39289,11.32062 -19.76148,16.98047 -34.10742,16.98047 -14.54114,0 -26.00753,-5.61098 -34.4004,-16.83398 -8.29527,-11.32062 -12.44336,-26.7884 -12.44336,-46.4043 10e-6,-19.6159 4.19503,-35.03676 12.5879,-46.25976 8.39286,-11.32062 19.81231,-16.98047 34.25586,-16.98047 z"
       transform="scale(0.26458333)"
       id="path998"
       inkscape:connector-curvature="0" />
  </g>
</svg>
