<?xml version="1.0" encoding="UTF-8" standalone="no"?>
<!-- Created with Inkscape (http://www.inkscape.org/) -->

<svg
   xmlns:dc="http://purl.org/dc/elements/1.1/"
   xmlns:cc="http://creativecommons.org/ns#"
   xmlns:rdf="http://www.w3.org/1999/02/22-rdf-syntax-ns#"
   xmlns:svg="http://www.w3.org/2000/svg"
   xmlns="http://www.w3.org/2000/svg"
   xmlns:sodipodi="http://sodipodi.sourceforge.net/DTD/sodipodi-0.dtd"
   xmlns:inkscape="http://www.inkscape.org/namespaces/inkscape"
   width="29.098995mm"
   height="10.128708mm"
   viewBox="0 0 29.098995 10.128708"
   version="1.1"
   id="svg841"
   inkscape:version="0.92.4 (5da689c313, 2019-01-14)"
   sodipodi:docname="green-pink.svg">
  <defs
     id="defs835" />
  <sodipodi:namedview
     id="base"
     pagecolor="#ffffff"
     bordercolor="#666666"
     borderopacity="1.0"
     inkscape:pageopacity="0.0"
     inkscape:pageshadow="2"
     inkscape:zoom="7.9195959"
     inkscape:cx="37.394655"
     inkscape:cy="41.622266"
     inkscape:document-units="mm"
     inkscape:current-layer="layer1"
     showgrid="false"
     fit-margin-top="2"
     fit-margin-left="0"
     fit-margin-right="0"
     fit-margin-bottom="0"
     inkscape:window-width="1920"
     inkscape:window-height="1058"
     inkscape:window-x="0"
     inkscape:window-y="0"
     inkscape:window-maximized="1" />
  <metadata
     id="metadata838">
    <rdf:RDF>
      <cc:Work
         rdf:about="">
        <dc:format>image/svg+xml</dc:format>
        <dc:type
           rdf:resource="http://purl.org/dc/dcmitype/StillImage" />
        <dc:title></dc:title>
      </cc:Work>
    </rdf:RDF>
  </metadata>
  <g
     inkscape:label="Layer 1"
     inkscape:groupmode="layer"
     id="layer1"
     transform="translate(-94.322034,-63.798889)">
    <g
       aria-label="green"
       style="font-style:normal;font-weight:normal;font-size:10.58333302px;line-height:1.25;font-family:sans-serif;letter-spacing:0px;word-spacing:0px;fill:#ff00ff;fill-opacity:1;stroke:none;stroke-width:0.26458332"
       id="text1391">
      <path
         d="m 98.543999,68.765122 q 0,-1.033529 -0.428915,-1.60197 -0.423747,-0.568441 -1.193725,-0.568441 -0.764812,0 -1.193726,0.568441 -0.423747,0.568441 -0.423747,1.60197 0,1.028361 0.423747,1.596801 0.428914,0.568441 1.193726,0.568441 0.769978,0 1.193725,-0.568441 0.428915,-0.56844 0.428915,-1.596801 z m 0.950846,2.242757 q 0,1.477946 -0.656291,2.196248 -0.65629,0.72347 -2.010213,0.72347 -0.501261,0 -0.945679,-0.07752 -0.444417,-0.07235 -0.862996,-0.227376 v -0.925008 q 0.418579,0.227376 0.826823,0.335897 0.408244,0.10852 0.83199,0.10852 0.935344,0 1.400432,-0.490926 0.465088,-0.485758 0.465088,-1.472778 V 70.70815 q -0.294556,0.511597 -0.754476,0.764812 -0.459921,0.253214 -1.100708,0.253214 -1.064535,0 -1.715658,-0.81132 -0.651123,-0.81132 -0.651123,-2.149739 0,-1.343588 0.651123,-2.154908 0.651123,-0.81132 1.715658,-0.81132 0.640787,0 1.100708,0.253215 0.45992,0.253214 0.754476,0.764811 v -0.878499 h 0.950846 z"
         style="fill:#ff00ff;stroke-width:0.26458332"
         id="path1393"
         inkscape:connector-curvature="0" />
      <path
         d="m 104.80718,66.827255 q -0.16019,-0.09302 -0.3514,-0.134358 -0.18603,-0.04651 -0.41341,-0.04651 -0.80615,0 -1.24023,0.527099 -0.42892,0.521932 -0.42892,1.503785 v 3.048909 h -0.95601 v -5.78776 h 0.95601 v 0.89917 q 0.29973,-0.5271 0.78032,-0.780314 0.48059,-0.258383 1.16788,-0.258383 0.0982,0 0.21704,0.0155 0.11886,0.01034 0.26355,0.03617 z"
         style="fill:#ff00ff;stroke-width:0.26458332"
         id="path1395"
         inkscape:connector-curvature="0" />
      <path
         d="m 110.5381,68.594589 v 0.465088 h -4.37183 q 0.062,0.981852 0.58911,1.498617 0.53227,0.511596 1.47795,0.511596 0.54777,0 1.05937,-0.134358 0.51676,-0.134359 1.02319,-0.403077 v 0.89917 q -0.5116,0.217041 -1.04903,0.33073 -0.53744,0.113688 -1.09037,0.113688 -1.38493,0 -2.19625,-0.806153 -0.80616,-0.806152 -0.80616,-2.180745 0,-1.421102 0.76482,-2.253092 0.76997,-0.837159 2.07222,-0.837159 1.16789,0 1.84485,0.754476 0.68213,0.749309 0.68213,2.041219 z m -0.95085,-0.279052 q -0.0103,-0.780315 -0.43925,-1.245402 -0.42374,-0.465088 -1.12654,-0.465088 -0.79582,0 -1.27641,0.449585 -0.47542,0.449585 -0.54777,1.266072 z"
         style="fill:#ff00ff;stroke-width:0.26458332"
         id="path1397"
         inkscape:connector-curvature="0" />
      <path
         d="m 117.04933,68.594589 v 0.465088 h -4.37183 q 0.062,0.981852 0.58911,1.498617 0.53227,0.511596 1.47795,0.511596 0.54777,0 1.05937,-0.134358 0.51676,-0.134359 1.02319,-0.403077 v 0.89917 q -0.5116,0.217041 -1.04903,0.33073 -0.53744,0.113688 -1.09037,0.113688 -1.38493,0 -2.19625,-0.806153 -0.80615,-0.806152 -0.80615,-2.180745 0,-1.421102 0.76481,-2.253092 0.76998,-0.837159 2.07222,-0.837159 1.16789,0 1.84485,0.754476 0.68213,0.749309 0.68213,2.041219 z m -0.95085,-0.279052 q -0.0103,-0.780315 -0.43925,-1.245402 -0.42374,-0.465088 -1.12654,-0.465088 -0.79582,0 -1.27641,0.449585 -0.47542,0.449585 -0.54777,1.266072 z"
         style="fill:#ff00ff;stroke-width:0.26458332"
         id="path1399"
         inkscape:connector-curvature="0" />
      <path
         d="m 123.42103,68.232854 v 3.493327 h -0.95084 V 68.26386 q 0,-0.821655 -0.3204,-1.229899 -0.32039,-0.408244 -0.96118,-0.408244 -0.76998,0 -1.21439,0.490926 -0.44442,0.490927 -0.44442,1.33842 v 3.271118 h -0.95602 v -5.78776 h 0.95602 v 0.89917 q 0.34106,-0.521932 0.80098,-0.780314 0.46509,-0.258383 1.0697,-0.258383 0.99736,0 1.50896,0.620118 0.51159,0.614949 0.51159,1.813842 z"
         style="fill:#ff00ff;stroke-width:0.26458332"
         id="path1401"
         inkscape:connector-curvature="0" />
    </g>
    <text
       xml:space="preserve"
       style="font-style:normal;font-weight:normal;font-size:10.58333302px;line-height:1.25;font-family:sans-serif;letter-spacing:0px;word-spacing:0px;fill:#000000;fill-opacity:1;stroke:none;stroke-width:0.26458332"
       x="105.78121"
       y="71.321716"
       id="text1406"><tspan
         sodipodi:role="line"
         id="tspan1404"
         x="105.78121"
         y="80.685486"
         style="stroke-width:0.26458332" /></text>
  </g>
</svg>
