<?xml version="1.0" encoding="UTF-8" standalone="no"?>
<!-- Created with Inkscape (http://www.inkscape.org/) -->

<svg
   xmlns:dc="http://purl.org/dc/elements/1.1/"
   xmlns:cc="http://creativecommons.org/ns#"
   xmlns:rdf="http://www.w3.org/1999/02/22-rdf-syntax-ns#"
   xmlns:svg="http://www.w3.org/2000/svg"
   xmlns="http://www.w3.org/2000/svg"
   xmlns:sodipodi="http://sodipodi.sourceforge.net/DTD/sodipodi-0.dtd"
   xmlns:inkscape="http://www.inkscape.org/namespaces/inkscape"
   width="15.440918mm"
   height="10.290714mm"
   viewBox="0 0 15.440918 10.290714"
   version="1.1"
   id="svg8"
   inkscape:version="0.92.4 (5da689c313, 2019-01-14)"
   sodipodi:docname="red-red.svg">
  <defs
     id="defs2" />
  <sodipodi:namedview
     id="base"
     pagecolor="#ffffff"
     bordercolor="#666666"
     borderopacity="1.0"
     inkscape:pageopacity="0.0"
     inkscape:pageshadow="2"
     inkscape:zoom="11.2"
     inkscape:cx="16.97395"
     inkscape:cy="17.946435"
     inkscape:document-units="mm"
     inkscape:current-layer="layer1"
     showgrid="false"
     fit-margin-top="0"
     fit-margin-left="0"
     fit-margin-right="0"
     fit-margin-bottom="2.1"
     inkscape:window-width="1920"
     inkscape:window-height="1058"
     inkscape:window-x="0"
     inkscape:window-y="0"
     inkscape:window-maximized="1" />
  <metadata
     id="metadata5">
    <rdf:RDF>
      <cc:Work
         rdf:about="">
        <dc:format>image/svg+xml</dc:format>
        <dc:type
           rdf:resource="http://purl.org/dc/dcmitype/StillImage" />
        <dc:title />
      </cc:Work>
    </rdf:RDF>
  </metadata>
  <g
     inkscape:label="Layer 1"
     inkscape:groupmode="layer"
     id="layer1"
     transform="translate(5.0864377,-84.096049)">
    <g
       aria-label="red"
       style="font-style:normal;font-weight:normal;font-size:10.58333302px;line-height:1.25;font-family:sans-serif;letter-spacing:0px;word-spacing:0px;fill:#e64017;fill-opacity:1;stroke:none;stroke-width:0.26458332"
       id="text817">
      <path
         d="m -1.6964639,87.237976 q -0.1601969,-0.09302 -0.3513997,-0.134358 -0.1860352,-0.04651 -0.4134114,-0.04651 -0.8061524,0 -1.2402344,0.527099 -0.4289144,0.521932 -0.4289144,1.503784 v 3.04891 h -0.9560139 v -5.78776 h 0.9560139 v 0.89917 q 0.2997233,-0.5271 0.7803141,-0.780315 0.4805908,-0.258382 1.1678874,-0.258382 0.098185,0 0.217041,0.0155 0.1188558,0.01034 0.2635498,0.03617 z"
         style="stroke-width:0.26458332;fill:#e64017;fill-opacity:1"
         id="path823" />
      <path
         d="m 4.0344521,89.00531 v 0.465088 h -4.37182604 q 0.0620117,0.981852 0.58911131,1.498617 0.53226724,0.511596 1.47794593,0.511596 0.5477702,0 1.0593668,-0.134359 0.5167643,-0.134358 1.0231933,-0.403076 v 0.89917 q -0.5115966,0.217041 -1.0490315,0.330729 -0.5374349,0.113689 -1.0903727,0.113689 -1.38492833,0 -2.19624829,-0.806153 -0.80615231,-0.806152 -0.80615231,-2.180745 0,-1.421102 0.76481116,-2.253093 0.76997882,-0.837158 2.07222484,-0.837158 1.1678874,0 1.8448486,0.754476 0.6821289,0.749308 0.6821289,2.041219 z M 3.0836058,88.726257 Q 3.0732705,87.945943 2.6443561,87.480855 2.2206094,87.015768 1.5178099,87.015768 q -0.79581701,0 -1.27640782,0.449585 -0.47542316,0.449584 -0.54777016,1.266072 z"
         style="stroke-width:0.26458332;fill:#e64017;fill-opacity:1"
         id="path825" />
      <path
         d="M 9.4036335,87.227641 V 84.096049 H 10.35448 v 8.040853 H 9.4036335 v -0.868164 q -0.2997233,0.516764 -0.7596436,0.769979 -0.4547526,0.248047 -1.0955403,0.248047 -1.0490316,0 -1.7104899,-0.837159 -0.6562906,-0.837158 -0.6562906,-2.201416 0,-1.364257 0.6562906,-2.201416 0.6614583,-0.837158 1.7104899,-0.837158 0.6407877,0 1.0955403,0.253215 0.4599203,0.248047 0.7596436,0.764811 z m -3.2401123,2.020548 q 0,1.049032 0.4289144,1.648479 0.434082,0.594278 1.1885579,0.594278 0.7544759,0 1.1885579,-0.594278 0.4340821,-0.599447 0.4340821,-1.648479 0,-1.049031 -0.4340821,-1.64331 -0.434082,-0.599447 -1.1885579,-0.599447 -0.7544759,0 -1.1885579,0.599447 -0.4289144,0.594279 -0.4289144,1.64331 z"
         style="stroke-width:0.26458332;fill:#e64017;fill-opacity:1"
         id="path827" />
    </g>
    <text
       xml:space="preserve"
       style="font-style:normal;font-weight:normal;font-size:10.58333302px;line-height:1.25;font-family:sans-serif;letter-spacing:0px;word-spacing:0px;fill:#000000;fill-opacity:1;stroke:none;stroke-width:0.26458332"
       x="-6.3857307"
       y="80.023666"
       id="text821"><tspan
         sodipodi:role="line"
         id="tspan819"
         x="-6.3857307"
         y="89.387436"
         style="stroke-width:0.26458332" /></text>
  </g>
</svg>
