<?xml version="1.0" encoding="UTF-8" standalone="no"?>
<!-- Created with Inkscape (http://www.inkscape.org/) -->

<svg
   xmlns:dc="http://purl.org/dc/elements/1.1/"
   xmlns:cc="http://creativecommons.org/ns#"
   xmlns:rdf="http://www.w3.org/1999/02/22-rdf-syntax-ns#"
   xmlns:svg="http://www.w3.org/2000/svg"
   xmlns="http://www.w3.org/2000/svg"
   xmlns:sodipodi="http://sodipodi.sourceforge.net/DTD/sodipodi-0.dtd"
   xmlns:inkscape="http://www.inkscape.org/namespaces/inkscape"
   width="25.265505mm"
   height="7.8737202mm"
   viewBox="0 0 25.265505 7.8737201"
   version="1.1"
   id="svg8"
   inkscape:version="0.92.4 (5da689c313, 2019-01-14)"
   sodipodi:docname="ffblue-blue.svg">
  <defs
     id="defs2" />
  <sodipodi:namedview
     id="base"
     pagecolor="#ffffff"
     bordercolor="#666666"
     borderopacity="1.0"
     inkscape:pageopacity="0.0"
     inkscape:pageshadow="2"
     inkscape:zoom="63.356768"
     inkscape:cx="49.963622"
     inkscape:cy="15.269894"
     inkscape:document-units="mm"
     inkscape:current-layer="text12"
     showgrid="false"
     fit-margin-top="0"
     fit-margin-left="0"
     fit-margin-right="0"
     fit-margin-bottom="0"
     inkscape:window-width="1920"
     inkscape:window-height="1062"
     inkscape:window-x="1"
     inkscape:window-y="18"
     inkscape:window-maximized="0" />
  <metadata
     id="metadata5">
    <rdf:RDF>
      <cc:Work
         rdf:about="">
        <dc:format>image/svg+xml</dc:format>
        <dc:type
           rdf:resource="http://purl.org/dc/dcmitype/StillImage" />
        <dc:title></dc:title>
      </cc:Work>
    </rdf:RDF>
  </metadata>
  <g
     inkscape:label="Layer 1"
     inkscape:groupmode="layer"
     id="layer1"
     transform="translate(-46.431411,-101.05925)">
    <g
       aria-label="BLUE"
       style="font-style:normal;font-weight:normal;font-size:10.58333302px;line-height:1.25;font-family:sans-serif;letter-spacing:0px;word-spacing:0px;fill:#000000;fill-opacity:1;stroke:none;stroke-width:0.26458332"
       id="text12">
      <path
         style="fill:#174be6;fill-opacity:1;stroke-width:0.26458332"
         d="m 67.295975,101.09103 -5.7e-4,0.47542 1.648992,0.002 c 0.561552,0.001 0.97654,0.11663 1.244965,0.3478 0.271877,0.22771 0.407511,0.58274 0.406904,1.06505 -5.58e-4,0.47887 -0.137133,0.83526 -0.409591,1.06919 -0.269007,0.23049 -0.684287,0.34537 -1.245837,0.34466 l -1.648992,-0.002 -0.001,0.85783 1.700671,0.003 c 0.864719,0.001 1.531581,-0.18583 2.000586,-0.56075 0.469006,-0.37493 0.703942,-0.90691 0.70481,-1.59593 6.14e-4,-0.52364 -0.141763,-0.95963 -0.427269,-1.30795 -0.282054,-0.35175 -0.679673,-0.58307 -1.192852,-0.69396 z"
         id="path867"
         inkscape:connector-curvature="0" />
      <path
         style="fill:#174be6;fill-opacity:1;stroke-width:0.26458332"
         d="m 50.171432,105.93762 -0.0028,-0.87849 -3.737221,0.012 0.0028,0.87849 z"
         id="path869"
         inkscape:connector-curvature="0" />
      <path
         style="font-style:normal;font-weight:normal;font-size:10.58333302px;line-height:1.25;font-family:sans-serif;letter-spacing:0px;word-spacing:0px;fill:#174be6;fill-opacity:1;stroke:none;stroke-width:0.26458332"
         d="m 69.411631,108.81625 -0.02484,-7.71525 -1.032491,0.003 0.02484,7.71525 z"
         id="path867-3"
         inkscape:connector-curvature="0" />
      <path
         style="font-style:normal;font-weight:normal;font-size:10.58333302px;line-height:1.25;font-family:sans-serif;letter-spacing:0px;word-spacing:0px;fill:#174be6;fill-opacity:1;stroke:none;stroke-width:0.26458332"
         d="m 70.46996,108.81284 -0.01361,-0.85772 -1.51962,0.0241 c -0.509807,0.008 -0.890256,-0.0824 -1.141316,-0.27132 -0.254531,-0.18892 -0.384859,-0.47801 -0.391036,-0.86724 -0.0065,-0.39269 0.114863,-0.68748 0.36327,-0.88437 0.245,-0.19339 0.622412,-0.29413 1.132218,-0.30221 l 1.519619,-0.0241 -0.0054,-0.35705 -2.843383,0.0452 c -0.393292,0.082 -0.695611,0.25358 -0.900329,0.52128 -0.216032,0.28251 -0.320312,0.65972 -0.31284,1.13164 0.0099,0.6097 0.23241,1.07649 0.668247,1.40036 0.435826,0.32385 1.05159,0.47948 1.847299,0.46686 z"
         id="path867-6"
         inkscape:connector-curvature="0" />
      <path
         style="font-style:normal;font-weight:normal;font-size:10.58333302px;line-height:1.25;font-family:sans-serif;letter-spacing:0px;word-spacing:0px;fill:#174be6;fill-opacity:1;stroke:none;stroke-width:0.99999994"
         d="M 26.443359 7.7871094 L 22.548828 7.7988281 L 22.582031 18.017578 L 26.476562 18.017578 L 26.443359 7.7871094 z "
         transform="matrix(0.26458333,0,0,0.26458333,46.431411,101.05925)"
         id="path869-3" />
      <path
         style="font-style:normal;font-weight:normal;font-size:10.58333302px;line-height:1.25;font-family:sans-serif;letter-spacing:0px;word-spacing:0px;fill:#174be6;fill-opacity:1;stroke:none;stroke-width:0.26458332"
         d="m 51.211498,108.92997 -0.01247,-3.87416 -1.030422,0.003 0.01247,3.87416 z"
         id="path869-3-5"
         inkscape:connector-curvature="0" />
      <path
         style="font-style:normal;font-weight:normal;font-size:10.58333302px;line-height:1.25;font-family:sans-serif;letter-spacing:0px;word-spacing:0px;fill:#174be6;fill-opacity:1;stroke:none;stroke-width:0.26800022"
         d="m 47.135967,105.94272 0.878488,0.003 0.01149,-3.83438 -0.878487,-0.003 z"
         id="path869-2"
         inkscape:connector-curvature="0" />
      <path
         style="font-style:normal;font-weight:normal;font-size:10.58333302px;line-height:1.25;font-family:sans-serif;letter-spacing:0px;word-spacing:0px;fill:#174be6;fill-opacity:1;stroke:none;stroke-width:0.26234213"
         d="m 57.104957,103.98613 -0.0028,-0.87849 -3.674175,0.0118 0.0028,0.87849 z"
         id="path869-9"
         inkscape:connector-curvature="0" />
      <path
         style="font-style:normal;font-weight:normal;font-size:10.58333302px;line-height:1.25;font-family:sans-serif;letter-spacing:0px;word-spacing:0px;fill:#174be6;fill-opacity:1;stroke:none;stroke-width:0.26800022"
         d="m 57.098362,101.93775 -0.0028,-0.8785 -3.834371,0.0123 0.0028,0.8785 z"
         id="path869-2-2"
         inkscape:connector-curvature="0" />
      <path
         style="font-style:normal;font-weight:normal;font-size:10.58333302px;line-height:1.25;font-family:sans-serif;letter-spacing:0px;word-spacing:0px;fill:#174be6;fill-opacity:1;stroke:none;stroke-width:0.26458332"
         d="m 53.247895,108.90819 3.874151,-0.0175 -0.0046,-1.03043 -3.874151,0.0175 z"
         id="path869-3-7"
         inkscape:connector-curvature="0" />
      <path
         style="font-style:normal;font-weight:normal;font-size:10.58333302px;line-height:1.25;font-family:sans-serif;letter-spacing:0px;word-spacing:0px;fill:#174be6;fill-opacity:1;stroke:none;stroke-width:0.26458332"
         d="m 57.117429,107.86029 -0.01247,-3.87416 -1.030423,0.003 0.01247,3.87416 z"
         id="path869-3-5-0"
         inkscape:connector-curvature="0" />
      <path
         style="font-style:normal;font-weight:normal;font-size:10.58333302px;line-height:1.25;font-family:sans-serif;letter-spacing:0px;word-spacing:0px;fill:#174be6;fill-opacity:1;stroke:none;stroke-width:0.26458332"
         d="m 64.572072,108.84938 c -0.05311,-0.84031 -0.298918,-1.48767 -0.73954,-1.94066 -0.501189,-0.5117 -1.239262,-0.766 -2.214219,-0.76286 -0.971513,0.003 -1.704487,0.26216 -2.198925,0.77707 -0.440748,0.45583 -0.684155,1.10476 -0.732198,1.94539 l 1.057811,-0.003 c 0.04602,-0.58805 0.186767,-1.03128 0.425687,-1.3243 0.298557,-0.36269 0.782008,-0.54512 1.450354,-0.54727 0.671789,-0.002 1.158128,0.17714 1.459014,0.5379 0.240801,0.29148 0.384406,0.73379 0.434205,1.32153 z"
         id="path871-9"
         inkscape:connector-curvature="0" />
      <path
         style="font-style:normal;font-weight:normal;font-size:10.58333302px;line-height:1.25;font-family:sans-serif;letter-spacing:0px;word-spacing:0px;fill:#174be6;fill-opacity:1;stroke:none;stroke-width:0.99999994"
         d="M 68.304688 0.21289062 L 64.306641 0.22460938 C 64.35362 0.77899048 64.384678 1.3563176 64.386719 1.9804688 L 64.449219 21.085938 L 68.5625 29.443359 L 68.349609 1.4824219 C 68.346287 1.0460754 68.33088 0.62463236 68.304688 0.21289062 z "
         transform="matrix(0.26458333,0,0,0.26458333,46.431411,101.05925)"
         id="path871-9-3" />
      <path
         style="font-style:normal;font-weight:normal;font-size:10.58333302px;line-height:1.25;font-family:sans-serif;letter-spacing:0px;word-spacing:0px;fill:#174be6;fill-opacity:1;stroke:none;stroke-width:0.21722044"
         d="m 56.074536,103.98913 -0.01247,-2.61129 -1.030422,0.002 0.01247,2.61129 z"
         id="path869-3-56"
         inkscape:connector-curvature="0" />
      <path
         style="font-style:normal;font-weight:normal;font-size:10.58333302px;line-height:1.25;font-family:sans-serif;letter-spacing:0px;word-spacing:0px;fill:#174be6;fill-opacity:1;stroke:none;stroke-width:0.26458332"
         d="m 61.738856,101.11262 -1.057817,0.003 c -0.0063,0.10898 -0.01016,0.22045 -0.0098,0.3359 l 0.0088,2.65255 1.056266,2.14457 -0.0155,-4.67103 c -5.31e-4,-0.16514 0.0066,-0.31834 0.01809,-0.46509 z m -0.0026,5.13612 v 0.016 l -1.049548,0.003 h 1.05885 z m -1.056248,-2.1446 v 0 l -0.01034,-0.0207 z"
         id="path69"
         inkscape:connector-curvature="0"
         sodipodi:nodetypes="ccccccccccccccccc" />
    </g>
  </g>
</svg>
