<?xml version="1.0" encoding="UTF-8" standalone="no"?>
<!-- Created with Inkscape (http://www.inkscape.org/) -->

<svg
   xmlns:dc="http://purl.org/dc/elements/1.1/"
   xmlns:cc="http://creativecommons.org/ns#"
   xmlns:rdf="http://www.w3.org/1999/02/22-rdf-syntax-ns#"
   xmlns:svg="http://www.w3.org/2000/svg"
   xmlns="http://www.w3.org/2000/svg"
   xmlns:sodipodi="http://sodipodi.sourceforge.net/DTD/sodipodi-0.dtd"
   xmlns:inkscape="http://www.inkscape.org/namespaces/inkscape"
   width="35.086956mm"
   height="7.9995279mm"
   viewBox="0 0 35.086956 7.9995279"
   version="1.1"
   id="svg8"
   inkscape:version="0.92.4 (5da689c313, 2019-01-14)"
   sodipodi:docname="ffgreen-green.svg">
  <defs
     id="defs2" />
  <sodipodi:namedview
     id="base"
     pagecolor="#ffffff"
     bordercolor="#666666"
     borderopacity="1.0"
     inkscape:pageopacity="0.0"
     inkscape:pageshadow="2"
     inkscape:zoom="5.6"
     inkscape:cx="23.79642"
     inkscape:cy="-15.000366"
     inkscape:document-units="mm"
     inkscape:current-layer="layer1"
     showgrid="false"
     fit-margin-top="0"
     fit-margin-left="0"
     fit-margin-right="0"
     fit-margin-bottom="0"
     inkscape:window-width="1920"
     inkscape:window-height="1062"
     inkscape:window-x="1"
     inkscape:window-y="18"
     inkscape:window-maximized="0" />
  <metadata
     id="metadata5">
    <rdf:RDF>
      <cc:Work
         rdf:about="">
        <dc:format>image/svg+xml</dc:format>
        <dc:type
           rdf:resource="http://purl.org/dc/dcmitype/StillImage" />
        <dc:title />
      </cc:Work>
    </rdf:RDF>
  </metadata>
  <g
     inkscape:label="Layer 1"
     inkscape:groupmode="layer"
     id="layer1"
     transform="translate(-45.969309,-100.92077)">
    <g
       aria-label="GREEN"
       style="font-style:normal;font-weight:normal;font-size:10.58333302px;line-height:1.25;font-family:sans-serif;letter-spacing:0px;word-spacing:0px;fill:#000000;fill-opacity:1;stroke:none;stroke-width:0.26458332"
       id="text12"
       transform="translate(-0.20045199,0.06681787)">
      <path
         style="font-style:normal;font-weight:normal;font-size:10.58333302px;line-height:1.25;font-family:sans-serif;letter-spacing:0px;word-spacing:0px;fill:#8ce617;fill-opacity:1;stroke:none;stroke-width:0.26458332"
         d="m 50.967411,105.71407 -0.0037,-2.00195 -1.520441,-2.85596 -0.374652,7e-4 0.0024,1.29501 z"
         id="path50-7"
         inkscape:connector-curvature="0" />
      <path
         style="font-style:normal;font-weight:normal;font-size:10.58333302px;line-height:1.25;font-family:sans-serif;letter-spacing:0px;word-spacing:0px;fill:#8ce617;fill-opacity:1;stroke:none;stroke-width:0.26458332"
         d="m 49.082887,108.57218 -0.01427,-7.71532 -1.006138,0.002 0.01427,7.71532 z"
         id="path50-7-0"
         inkscape:connector-curvature="0" />
      <path
         style="font-style:normal;font-weight:normal;font-size:10.58333302px;line-height:1.25;font-family:sans-serif;letter-spacing:0px;word-spacing:0px;fill:#8ce617;fill-opacity:1;stroke:none;stroke-width:0.26458332"
         d="m 48.07675,108.57404 -0.0024,-1.29088 -1.899513,-3.56787 0.0037,2.00144 1.521476,2.85801 z"
         id="path50-7-3"
         inkscape:connector-curvature="0" />
      <path
         style="font-style:normal;font-weight:normal;font-size:10.58333302px;line-height:1.25;font-family:sans-serif;letter-spacing:0px;word-spacing:0px;fill:#8ce617;fill-opacity:1;stroke:none;stroke-width:0.27933902"
         d="m 74.69763,104.16986 c 9.56e-4,0.0714 -0.0013,0.1402 0.0015,0.21325 0.05404,1.40035 0.435262,2.47768 1.14367,3.23198 0.711701,0.75029 1.669887,1.09683 2.874557,1.0396 0.04385,-0.002 0.08602,-0.008 0.129412,-0.0102 l -0.03677,-0.95301 c -0.01459,8e-4 -0.027,0.003 -0.04173,0.004 -0.943084,0.0447 -1.663444,-0.21502 -2.161081,-0.77946 -0.494194,-0.56461 -0.763647,-1.42623 -0.808359,-2.58488 -0.0028,-0.0732 -0.0017,-0.14215 -0.0025,-0.21321 z"
         id="path42-6"
         inkscape:connector-curvature="0" />
      <path
         style="font-style:normal;font-weight:normal;font-size:10.58333302px;line-height:1.25;font-family:sans-serif;letter-spacing:0px;word-spacing:0px;fill:#8ce617;fill-opacity:1;stroke:none;stroke-width:0.26458332"
         d="m 78.522699,105.06813 -0.0073,-1.11104 c -0.383886,-0.23879 -0.803297,-0.41853 -1.258805,-0.53975 -0.452064,-0.12124 -0.929828,-0.18029 -1.432801,-0.17719 -0.520139,0.003 -0.987979,0.0758 -1.409864,0.20984 l 0.0018,0.96996 c 0.407149,-0.21118 0.907209,-0.31899 1.501123,-0.32265 0.478859,-0.003 0.936328,0.0772 1.371422,0.23982 0.435094,0.16269 0.846493,0.40612 1.234353,0.73101 z"
         id="path42-2"
         inkscape:connector-curvature="0" />
      <path
         style="font-style:normal;font-weight:normal;font-size:10.58333302px;line-height:1.25;font-family:sans-serif;letter-spacing:0px;word-spacing:0px;fill:#8ce617;fill-opacity:1;stroke:none;stroke-width:0.26458332"
         d="m 81.256718,105.06319 -0.0016,-0.85783 -1.700669,0.003 -0.0038,-2.07222 c 0.230572,-0.13477 0.490493,-0.23518 0.77976,-0.30117 0.270852,-0.0585 0.579769,-0.0873 0.920189,-0.0916 l -0.0016,-0.85576 c -0.493356,0.0133 -0.96106,0.0827 -1.400554,0.21446 -0.485484,0.14904 -0.929499,0.36691 -1.332045,0.65359 l 0.0061,3.31246 z"
         id="path42-6-6"
         inkscape:connector-curvature="0" />
      <path
         style="font-style:normal;font-weight:normal;font-size:10.58333302px;line-height:1.25;font-family:sans-serif;letter-spacing:0px;word-spacing:0px;fill:#8ce617;fill-opacity:1;stroke:none;stroke-width:0.26458332"
         d="m 81.256718,105.06319 -1.099145,-0.008 c -0.03416,0.94916 -0.272052,1.67252 -0.718384,2.16386 -0.177688,0.19419 -0.387606,0.35111 -0.629198,0.47237 l -0.01114,0.9699 c 0.55847,-0.16926 1.03603,-0.4494 1.426799,-0.84823 0.64884,-0.66234 0.989848,-1.58109 1.031062,-2.75045 z m -5.390305,3.56501 c 0.03008,0.01 0.05946,0.0204 0.0901,0.0289 0.08635,0.0243 0.174548,0.0442 0.262833,0.064 -0.08848,-0.0198 -0.176822,-0.0401 -0.263344,-0.0645 -0.03046,-0.009 -0.05972,-0.019 -0.08959,-0.0284 z m 2.586213,0.12168 c -0.09749,0.0207 -0.19733,0.0384 -0.299317,0.0529 0.102423,-0.0141 0.201474,-0.0326 0.299317,-0.0529 z m -0.44317,0.0688 c -0.07227,0.008 -0.144337,0.0168 -0.218855,0.0218 0.07471,-0.005 0.146349,-0.014 0.218855,-0.0218 z m -0.995583,0.0202 c 0.122457,0.009 0.246702,0.0137 0.372443,0.0146 l 6e-6,-5.2e-4 c -0.125741,-7.7e-4 -0.249969,-0.006 -0.372449,-0.0141 z"
         id="path42-2-1"
         inkscape:connector-curvature="0" />
    </g>
    <path
       style="font-style:normal;font-weight:normal;font-size:10.58333302px;line-height:1.25;font-family:sans-serif;letter-spacing:0px;word-spacing:0px;fill:#8ce617;fill-opacity:1;stroke:none;stroke-width:1.01291418"
       d="M 53.271484 7.2832031 L 53.226562 17.890625 L 56.544922 17.890625 L 56.591797 7.2988281 L 53.271484 7.2832031 z "
       transform="matrix(0.26458333,0,0,0.26458333,45.969309,100.92077)"
       id="path869-2" />
    <path
       style="font-style:normal;font-weight:normal;font-size:10.58333302px;line-height:1.25;font-family:sans-serif;letter-spacing:0px;word-spacing:0px;fill:#8ce617;fill-opacity:1;stroke:none;stroke-width:0.26234213"
       d="m 64.618285,103.7235 -0.0016,-0.87851 -3.674188,0.007 0.0016,0.8785 z"
       id="path869-9"
       inkscape:connector-curvature="0" />
    <path
       style="font-style:normal;font-weight:normal;font-size:10.58333302px;line-height:1.25;font-family:sans-serif;letter-spacing:0px;word-spacing:0px;fill:#8ce617;fill-opacity:1;stroke:none;stroke-width:0.26800022"
       d="m 64.614758,101.81683 -0.0016,-0.8785 -3.834384,0.007 0.0016,0.87849 z"
       id="path869-2-2"
       inkscape:connector-curvature="0" />
    <path
       style="font-style:normal;font-weight:normal;font-size:10.58333302px;line-height:1.25;font-family:sans-serif;letter-spacing:0px;word-spacing:0px;fill:#8ce617;fill-opacity:1;stroke:none;stroke-width:0.26458332"
       d="m 60.754487,108.64029 3.874171,-0.0122 -0.0032,-1.03044 -3.874171,0.0122 z"
       id="path869-3-7"
       inkscape:connector-curvature="0" />
    <path
       style="font-style:normal;font-weight:normal;font-size:10.58333302px;line-height:1.25;font-family:sans-serif;letter-spacing:0px;word-spacing:0px;fill:#8ce617;fill-opacity:1;stroke:none;stroke-width:0.26458332"
       d="m 64.625452,107.59769 -0.0072,-3.87419 -1.030426,0.002 0.0072,3.8742 z"
       id="path869-3-5-0"
       inkscape:connector-curvature="0" />
    <path
       style="font-style:normal;font-weight:normal;font-size:10.58333302px;line-height:1.25;font-family:sans-serif;letter-spacing:0px;word-spacing:0px;fill:#8ce617;fill-opacity:1;stroke:none;stroke-width:0.26642549"
       d="m 72.136092,108.7235 0.0042,-3.63539 -1.047482,-0.002 -0.0038,3.29493 -1.140824,-8.9e-4 c -0.41484,-0.001 -0.741436,-0.0861 -0.979776,-0.25704 -0.241797,-0.17087 -0.490304,-0.51752 -0.745527,-1.04001 l -0.988147,-2.0011 -1.125268,-9.2e-4 1.060595,2.13174 c 0.213831,0.43887 0.427771,0.78377 0.64182,1.03468 0.196411,0.234 0.399116,0.38911 0.607727,0.47173 z"
       id="path845-3"
       inkscape:connector-curvature="0" />
    <path
       style="font-style:normal;font-weight:normal;font-size:10.58333302px;line-height:1.25;font-family:sans-serif;letter-spacing:0px;word-spacing:0px;fill:#8ce617;fill-opacity:1;stroke:none;stroke-width:0.26642549"
       d="m 72.136678,105.08411 8.96e-4,-0.86682 -1.29432,-0.003 c -0.504732,-0.001 -0.884867,-0.11767 -1.140421,-0.35121 -0.259014,-0.23007 -0.388259,-0.57313 -0.387736,-1.02915 4.56e-4,-0.45603 0.13056,-0.80226 0.390111,-1.03868 0.256088,-0.23293 0.636496,-0.3491 1.141225,-0.34849 l 1.294318,0.003 4.81e-4,-0.49658 -2.628044,-0.002 c -0.418232,0.12632 -0.738961,0.3462 -0.959061,0.66253 -0.228535,0.32349 -0.343085,0.73065 -0.343649,1.22149 -8.09e-4,0.75193 0.216285,1.31442 0.651443,1.68741 0.43516,0.37303 1.095242,0.56005 1.980244,0.5611 z"
       id="path845-6"
       inkscape:connector-curvature="0" />
    <path
       style="font-style:normal;font-weight:normal;font-size:10.58333302px;line-height:1.25;font-family:sans-serif;letter-spacing:0px;word-spacing:0px;fill:#8ce617;fill-opacity:1;stroke:none;stroke-width:0.26642549"
       d="m 68.267691,105.0835 0.0048,-4.16073 -1.032961,-0.002 -0.0048,4.1607 z"
       id="path845-6-3"
       inkscape:connector-curvature="0" />
    <path
       style="font-style:normal;font-weight:normal;font-size:10.58333302px;line-height:1.25;font-family:sans-serif;letter-spacing:0px;word-spacing:0px;fill:#8ce617;fill-opacity:1;stroke:none;stroke-width:0.26458332"
       d="m 47.006935,104.80133 -0.0072,-3.87419 -1.030426,0.002 0.0072,3.87419 z"
       id="path869-3-5-0-3-6"
       inkscape:connector-curvature="0" />
    <path
       style="font-style:normal;font-weight:normal;font-size:10.58333302px;line-height:1.25;font-family:sans-serif;letter-spacing:0px;word-spacing:0px;fill:#8ce617;fill-opacity:1;stroke:none;stroke-width:0.26458332"
       d="m 50.775063,108.64532 -0.0072,-3.87421 -1.030426,0.002 0.0072,3.8742 z"
       id="path869-3-5-0-3-0"
       inkscape:connector-curvature="0" />
    <path
       style="font-style:normal;font-weight:normal;font-size:10.58333302px;line-height:1.25;font-family:sans-serif;letter-spacing:0px;word-spacing:0px;fill:#8ce617;fill-opacity:1;stroke:none;stroke-width:0.22172631"
       d="m 62.709343,103.7225 0.878483,0.003 0.01674,-2.62457 -0.878483,-0.003 z"
       id="path869-2-36"
       inkscape:connector-curvature="0" />
    <path
       inkscape:connector-curvature="0"
       style="font-style:normal;font-weight:normal;font-size:10.58333302px;line-height:1.25;font-family:sans-serif;letter-spacing:0px;word-spacing:0px;fill:#8ce617;fill-opacity:1;stroke:none;stroke-width:0.26800022"
       d="m 53.097494,102.8528 -0.01188,2.80655 h 0.877982 l 0.0124,-2.80241 z"
       id="path869-2-7" />
    <path
       style="font-style:normal;font-weight:normal;font-size:10.58333302px;line-height:1.25;font-family:sans-serif;letter-spacing:0px;word-spacing:0px;fill:#8ce617;fill-opacity:1;stroke:none;stroke-width:0.26234213"
       d="m 57.651724,103.72852 -0.0016,-0.87851 -3.674188,0.007 0.0016,0.8785 z"
       id="path869-9-5"
       inkscape:connector-curvature="0" />
    <path
       style="font-style:normal;font-weight:normal;font-size:10.58333302px;line-height:1.25;font-family:sans-serif;letter-spacing:0px;word-spacing:0px;fill:#8ce617;fill-opacity:1;stroke:none;stroke-width:0.26800022"
       d="m 57.648197,101.82185 -0.0016,-0.8785 -3.834384,0.007 0.0016,0.87849 z"
       id="path869-2-2-3"
       inkscape:connector-curvature="0" />
    <path
       style="font-style:normal;font-weight:normal;font-size:10.58333302px;line-height:1.25;font-family:sans-serif;letter-spacing:0px;word-spacing:0px;fill:#8ce617;fill-opacity:1;stroke:none;stroke-width:0.26458332"
       d="m 53.787926,108.64531 3.874171,-0.0122 -0.0032,-1.03044 -3.874171,0.0122 z"
       id="path869-3-7-5"
       inkscape:connector-curvature="0" />
    <path
       style="font-style:normal;font-weight:normal;font-size:10.58333302px;line-height:1.25;font-family:sans-serif;letter-spacing:0px;word-spacing:0px;fill:#8ce617;fill-opacity:1;stroke:none;stroke-width:0.26458332"
       d="m 57.65889,107.60271 -0.0072,-3.87419 -1.030426,0.002 0.0072,3.8742 z"
       id="path869-3-5-0-6"
       inkscape:connector-curvature="0" />
    <path
       style="font-style:normal;font-weight:normal;font-size:10.58333302px;line-height:1.25;font-family:sans-serif;letter-spacing:0px;word-spacing:0px;fill:#8ce617;fill-opacity:1;stroke:none;stroke-width:0.22172633"
       d="m 55.742782,103.72752 0.878482,0.003 0.01674,-2.62457 -0.878483,-0.003 z"
       id="path869-2-36-2"
       inkscape:connector-curvature="0" />
  </g>
</svg>
