<?xml version="1.0" encoding="UTF-8" standalone="no"?>
<!-- Created with Inkscape (http://www.inkscape.org/) -->

<svg
   xmlns:dc="http://purl.org/dc/elements/1.1/"
   xmlns:cc="http://creativecommons.org/ns#"
   xmlns:rdf="http://www.w3.org/1999/02/22-rdf-syntax-ns#"
   xmlns:svg="http://www.w3.org/2000/svg"
   xmlns="http://www.w3.org/2000/svg"
   xmlns:sodipodi="http://sodipodi.sourceforge.net/DTD/sodipodi-0.dtd"
   xmlns:inkscape="http://www.inkscape.org/namespaces/inkscape"
   width="29.287024mm"
   height="11.025257mm"
   viewBox="0 0 20.500916 7.7176798"
   version="1.1"
   id="svg8"
   inkscape:version="0.92.4 (5da689c313, 2019-01-14)"
   sodipodi:docname="ffred-red.svg">
  <defs
     id="defs2" />
  <sodipodi:namedview
     id="base"
     pagecolor="#ffffff"
     bordercolor="#666666"
     borderopacity="1.0"
     inkscape:pageopacity="0.0"
     inkscape:pageshadow="2"
     inkscape:zoom="11.2"
     inkscape:cx="55.622925"
     inkscape:cy="25.738439"
     inkscape:document-units="mm"
     inkscape:current-layer="text12"
     showgrid="false"
     fit-margin-top="0"
     fit-margin-left="0"
     fit-margin-right="0"
     fit-margin-bottom="0"
     inkscape:window-width="1920"
     inkscape:window-height="1062"
     inkscape:window-x="1"
     inkscape:window-y="18"
     inkscape:window-maximized="0"
     scale-x="0.7" />
  <metadata
     id="metadata5">
    <rdf:RDF>
      <cc:Work
         rdf:about="">
        <dc:format>image/svg+xml</dc:format>
        <dc:type
           rdf:resource="http://purl.org/dc/dcmitype/StillImage" />
        <dc:title></dc:title>
      </cc:Work>
    </rdf:RDF>
  </metadata>
  <g
     inkscape:label="Layer 1"
     inkscape:groupmode="layer"
     id="layer1"
     transform="translate(-46.425438,-101.05828)">
    <g
       aria-label="RED"
       style="font-style:normal;font-weight:normal;font-size:10.58333302px;line-height:1.25;font-family:sans-serif;letter-spacing:0px;word-spacing:0px;fill:#e64017;fill-opacity:1;stroke:none;stroke-width:0.26458332"
       id="text12">
      <path
         style="font-style:normal;font-weight:normal;font-size:10.58333302px;line-height:1.25;font-family:sans-serif;letter-spacing:0px;word-spacing:0px;fill:#e64017;fill-opacity:1;stroke:none;stroke-width:0.26800022"
         d="m 54.652867,102.96865 -0.0031,2.7793 0.878633,-0.006 0.0027,-2.77243 z"
         id="path869-2"
         inkscape:connector-curvature="0" />
      <path
         style="font-style:normal;font-weight:normal;font-size:10.58333302px;line-height:1.25;font-family:sans-serif;letter-spacing:0px;word-spacing:0px;fill:#e64017;fill-opacity:1;stroke:none;stroke-width:0.26458332"
         d="m 66.92452,108.77517 8.66e-4,-3.59771 -1.043863,-7.2e-4 -7.85e-4,3.26078 -1.136882,-6e-5 c -0.41341,-4.7e-4 -0.738952,-0.0845 -0.976624,-0.25345 -0.241116,-0.16887 -0.489081,-0.51171 -0.743894,-1.02854 l -0.986545,-1.97944 h -1.121379 l 1.058861,2.10865 c 0.213492,0.43413 0.427005,0.77525 0.640542,1.02335 0.195943,0.23139 0.398088,0.3847 0.606053,0.46627 z"
         id="path845-3"
         inkscape:connector-curvature="0" />
      <path
         style="font-style:normal;font-weight:normal;font-size:10.58333302px;line-height:1.25;font-family:sans-serif;letter-spacing:0px;word-spacing:0px;fill:#e64017;fill-opacity:1;stroke:none;stroke-width:0.26458332"
         d="m 66.925386,105.17746 1.58e-4,-0.85783 -1.289843,-6e-4 c -0.502985,2e-4 -0.881916,-0.11563 -1.136798,-0.34651 -0.258327,-0.22744 -0.387436,-0.56681 -0.387328,-1.01812 1.09e-4,-0.4513 0.129381,-0.79406 0.387819,-1.02827 0.254992,-0.23075 0.63398,-0.34607 1.136965,-0.34595 l 1.289843,6e-4 1.52e-4,-0.49144 -2.618962,-3.4e-4 c -0.416665,0.12542 -0.736086,0.34332 -0.955138,0.65657 -0.227453,0.32034 -0.341238,0.72339 -0.341354,1.20915 -1.53e-4,0.74413 0.216729,1.30058 0.650722,1.6693 0.433994,0.36874 1.091962,0.55321 1.973907,0.55342 z"
         id="path845-6"
         inkscape:connector-curvature="0" />
      <path
         style="font-style:normal;font-weight:normal;font-size:10.58333302px;line-height:1.25;font-family:sans-serif;letter-spacing:0px;word-spacing:0px;fill:#e64017;fill-opacity:1;stroke:none;stroke-width:0.26458332"
         d="m 63.066189,105.17653 9.9e-4,-4.11758 -1.029394,-6.7e-4 -9.89e-4,4.11757 z"
         id="path845-6-3"
         inkscape:connector-curvature="0" />
      <path
         style="font-style:normal;font-weight:normal;font-size:10.58333302px;line-height:1.25;font-family:sans-serif;letter-spacing:0px;word-spacing:0px;fill:#e64017;fill-opacity:1;stroke:none;stroke-width:0.26458332"
         d="m 52.86126,104.92724 1.82e-4,-0.85783 -1.233515,-4.3e-4 c -1.064535,1.8e-4 -1.843062,-0.24165 -2.335581,-0.7241 -0.495967,-0.479 -0.74381,-1.23526 -0.743533,-2.26879 10e-7,-0.005 5.05e-4,-0.0105 5.2e-4,-0.016 l -1.100709,5e-5 c -1.3e-5,0.005 -5.19e-4,0.0105 -5.2e-4,0.016 -3.53e-4,1.32292 0.349062,2.29453 1.048251,2.91483 0.699187,0.62377 1.796367,0.93584 3.291539,0.93623 z"
         id="path849-6"
         inkscape:connector-curvature="0" />
      <path
         style="font-style:normal;font-weight:normal;font-size:10.58333302px;line-height:1.25;font-family:sans-serif;letter-spacing:0px;word-spacing:0px;fill:#e64017;fill-opacity:1;stroke:none;stroke-width:0.26458332"
         d="m 47.446563,108.77543 0.0021,-7.71529 -1.021125,-6.7e-4 -0.0021,7.71529 z"
         id="path849-6-7"
         inkscape:connector-curvature="0" />
      <path
         style="font-style:normal;font-weight:normal;font-size:10.58333302px;line-height:1.25;font-family:sans-serif;letter-spacing:0px;word-spacing:0px;fill:#e64017;fill-opacity:1;stroke:none;stroke-width:0.26458332"
         d="m 48.547271,108.77571 c 0.0029,-1.03194 0.250642,-1.78825 0.744231,-2.26787 0.492778,-0.48218 1.271434,-0.72312 2.335968,-0.72284 l 1.233516,4.3e-4 1.82e-4,-0.85783 -1.07332,1.4e-4 c -1.488283,-3.5e-4 -2.583907,0.31109 -3.286873,0.93447 -0.700047,0.62078 -1.051201,1.59238 -1.054462,2.91375 z"
         id="path849-6-5"
         inkscape:connector-curvature="0" />
      <path
         style="font-style:normal;font-weight:normal;font-size:10.58333302px;line-height:1.25;font-family:sans-serif;letter-spacing:0px;word-spacing:0px;fill:#e64017;fill-opacity:1;stroke:none;stroke-width:0.22351848"
         d="m 57.294747,103.84803 0.878461,0.005 0.03062,-2.66711 -0.878461,-0.005 z"
         id="path869-2-1"
         inkscape:connector-curvature="0" />
    </g>
    <path
       style="font-style:normal;font-weight:normal;font-size:10.58333302px;line-height:1.25;font-family:sans-serif;letter-spacing:0px;word-spacing:0px;fill:#e64017;fill-opacity:1;stroke:none;stroke-width:0.26234213"
       d="m 59.203688,103.85503 0.0016,-0.87851 -3.674188,-0.007 -0.0016,0.87851 z"
       id="path869-9"
       inkscape:connector-curvature="0" />
    <path
       style="font-style:normal;font-weight:normal;font-size:10.58333302px;line-height:1.25;font-family:sans-serif;letter-spacing:0px;word-spacing:0px;fill:#e64017;fill-opacity:1;stroke:none;stroke-width:0.26800022"
       d="m 59.207062,101.94837 0.0016,-0.8785 -3.834383,-0.007 -0.0016,0.87851 z"
       id="path869-2-2"
       inkscape:connector-curvature="0" />
    <path
       style="font-style:normal;font-weight:normal;font-size:10.58333302px;line-height:1.25;font-family:sans-serif;letter-spacing:0px;word-spacing:0px;fill:#e64017;fill-opacity:1;stroke:none;stroke-width:0.26458332"
       d="m 55.322118,108.75777 3.874189,0.002 5.66e-4,-1.03043 -3.874189,-0.002 z"
       id="path869-3-7"
       inkscape:connector-curvature="0" />
    <path
       style="font-style:normal;font-weight:normal;font-size:10.58333302px;line-height:1.25;font-family:sans-serif;letter-spacing:0px;word-spacing:0px;fill:#e64017;fill-opacity:1;stroke:none;stroke-width:0.26458332"
       d="m 59.196832,107.72921 0.0068,-3.87418 -1.030424,-0.002 -0.0068,3.87417 z"
       id="path869-3-5-0"
       inkscape:connector-curvature="0" />
  </g>
</svg>
