<?xml version="1.0" encoding="UTF-8" standalone="no"?>
<!-- Created with Inkscape (http://www.inkscape.org/) -->

<svg
   xmlns:dc="http://purl.org/dc/elements/1.1/"
   xmlns:cc="http://creativecommons.org/ns#"
   xmlns:rdf="http://www.w3.org/1999/02/22-rdf-syntax-ns#"
   xmlns:svg="http://www.w3.org/2000/svg"
   xmlns="http://www.w3.org/2000/svg"
   xmlns:sodipodi="http://sodipodi.sourceforge.net/DTD/sodipodi-0.dtd"
   xmlns:inkscape="http://www.inkscape.org/namespaces/inkscape"
   width="160.07808mm"
   height="77.390053mm"
   viewBox="0 0 160.07808 77.39005"
   version="1.1"
   id="svg8"
   sodipodi:docname="blue-blue.svg"
   inkscape:version="0.92.4 (5da689c313, 2019-01-14)">
  <defs
     id="defs2" />
  <sodipodi:namedview
     id="base"
     pagecolor="#ffffff"
     bordercolor="#666666"
     borderopacity="1.0"
     inkscape:pageopacity="0.0"
     inkscape:pageshadow="2"
     inkscape:zoom="1.5343031"
     inkscape:cx="177.4983"
     inkscape:cy="123.0591"
     inkscape:document-units="mm"
     inkscape:current-layer="layer1"
     showgrid="false"
     inkscape:window-width="1920"
     inkscape:window-height="1058"
     inkscape:window-x="0"
     inkscape:window-y="0"
     inkscape:window-maximized="1"
     fit-margin-top="0"
     fit-margin-left="0"
     fit-margin-right="0"
     fit-margin-bottom="16"
     showguides="false" />
  <metadata
     id="metadata5">
    <rdf:RDF>
      <cc:Work
         rdf:about="">
        <dc:format>image/svg+xml</dc:format>
        <dc:type
           rdf:resource="http://purl.org/dc/dcmitype/StillImage" />
        <dc:title />
      </cc:Work>
    </rdf:RDF>
  </metadata>
  <g
     inkscape:label="Layer 1"
     inkscape:groupmode="layer"
     id="layer1"
     transform="translate(-25.151436,-96.947048)">
    <path
       style="font-style:normal;font-weight:normal;font-size:79.32236481px;line-height:1.25;font-family:sans-serif;letter-spacing:0px;word-spacing:0px;fill:#174be6;fill-opacity:1;stroke:none;stroke-width:1.98305893"
       d="m 25.151436,96.947048 v 60.266602 h 7.165455 v -6.50711 c 1.497621,2.5821 3.382695,4.50599 5.65495,5.77123 2.298078,1.23942 5.034875,1.85933 8.21087,1.85933 5.267499,0 9.541129,-2.09155 12.820406,-6.27457 3.305098,-4.18302 4.957837,-9.683 4.957837,-16.49977 0,-6.81677 -1.652739,-12.31676 -4.957837,-16.49977 -3.279277,-4.18301 -7.552907,-6.27455 -12.820406,-6.27455 -3.175995,0 -5.912792,0.63284 -8.21087,1.89807 -2.272255,1.23941 -4.157329,3.14984 -5.65495,5.73195 V 96.947048 Z m 50.622232,0 v 60.266602 h 7.126697 V 96.947048 Z m 90.515922,15.841392 c -6.50691,0 -11.68401,2.09154 -15.53135,6.27455 -3.82152,4.15719 -5.73247,9.78602 -5.73247,16.88682 0,6.86841 2.01443,12.31666 6.04253,16.34474 4.0539,4.0281 9.54095,6.04255 16.46101,6.04255 2.76285,0 5.48671,-0.28408 8.17211,-0.85215 2.68539,-0.56807 5.30628,-1.39445 7.86257,-2.47893 v -6.73965 c -2.53047,1.3427 -5.08668,2.35018 -7.66879,3.02153 -2.55628,0.67134 -5.20304,1.00665 -7.94008,1.00665 -4.72525,0 -8.41779,-1.2781 -11.07736,-3.83439 -2.63375,-2.5821 -4.10538,-6.32586 -4.41523,-11.23187 h 32.76699 v -3.48609 c 0,-6.45527 -1.70448,-11.55475 -5.11287,-15.29881 -3.38256,-3.76987 -7.99149,-5.65495 -13.82706,-5.65495 z m -69.252103,1.04593 v 26.25989 c 0,5.96468 1.291039,10.496 3.873143,13.59452 2.58211,3.09855 6.3652,4.64832 11.34867,4.64832 3.02106,0 5.6673,-0.63285 7.93956,-1.89809 2.29808,-1.29107 4.31252,-3.25324 6.04253,-5.88699 v 6.66163 h 7.12618 v -43.37928 h -7.12618 v 24.59436 c 0,4.23466 -1.12339,7.57843 -3.36982,10.03143 -2.22061,2.45301 -5.25443,3.67936 -9.10177,3.67936 -3.20182,1e-5 -5.60331,-1.01989 -7.20421,-3.05976 -1.60091,-2.06568 -2.40141,-5.15124 -2.40141,-9.2568 v -25.98859 z m -52.597306,4.91856 c 3.769878,0 6.726076,1.49803 8.869227,4.49327 2.16897,2.96942 3.253547,7.07488 3.253547,12.31656 0,5.24168 -1.084577,9.36007 -3.253547,12.35532 -2.143151,2.96942 -5.099349,4.45399 -8.869227,4.45399 -3.769879,0 -6.73953,-1.48457 -8.9085,-4.45399 -2.143151,-2.99525 -3.21479,-7.11364 -3.21479,-12.35532 0,-5.24168 1.071639,-9.34714 3.21479,-12.31656 2.16897,-2.99524 5.138621,-4.49327 8.9085,-4.49327 z m 121.926919,0.0775 c 3.51167,0 6.32609,1.16219 8.44342,3.48609 2.14312,2.32389 3.24064,5.43533 3.2923,9.33431 l -25.40775,0.0388 c 0.3615,-4.07973 1.72964,-7.24291 4.10518,-9.48934 2.40136,-2.24644 5.59041,-3.36982 9.56685,-3.36982 z"
       id="path1064"
       inkscape:connector-curvature="0" />
  </g>
</svg>
