<?xml version="1.0" encoding="UTF-8" standalone="no"?>
<!-- Created with Inkscape (http://www.inkscape.org/) -->

<svg
   xmlns:dc="http://purl.org/dc/elements/1.1/"
   xmlns:cc="http://creativecommons.org/ns#"
   xmlns:rdf="http://www.w3.org/1999/02/22-rdf-syntax-ns#"
   xmlns:svg="http://www.w3.org/2000/svg"
   xmlns="http://www.w3.org/2000/svg"
   xmlns:sodipodi="http://sodipodi.sourceforge.net/DTD/sodipodi-0.dtd"
   xmlns:inkscape="http://www.inkscape.org/namespaces/inkscape"
   width="29.098999mm"
   height="10.228703mm"
   viewBox="0 0 29.098999 10.228703"
   version="1.1"
   id="svg2670"
   inkscape:version="0.92.4 (5da689c313, 2019-01-14)"
   sodipodi:docname="ffgreen-red.svg">
  <defs
     id="defs2664" />
  <sodipodi:namedview
     id="base"
     pagecolor="#ffffff"
     bordercolor="#666666"
     borderopacity="1.0"
     inkscape:pageopacity="0.0"
     inkscape:pageshadow="2"
     inkscape:zoom="44.8"
     inkscape:cx="37.639814"
     inkscape:cy="23.675601"
     inkscape:document-units="mm"
     inkscape:current-layer="layer1"
     showgrid="false"
     fit-margin-top="2.1"
     fit-margin-left="0"
     fit-margin-right="0"
     fit-margin-bottom="0"
     inkscape:window-width="1920"
     inkscape:window-height="1058"
     inkscape:window-x="0"
     inkscape:window-y="0"
     inkscape:window-maximized="1" />
  <metadata
     id="metadata2667">
    <rdf:RDF>
      <cc:Work
         rdf:about="">
        <dc:format>image/svg+xml</dc:format>
        <dc:type
           rdf:resource="http://purl.org/dc/dcmitype/StillImage" />
        <dc:title />
      </cc:Work>
    </rdf:RDF>
  </metadata>
  <g
     inkscape:label="Layer 1"
     inkscape:groupmode="layer"
     id="layer1"
     transform="translate(-51.988702,-90.15723)">
    <path
       style="font-style:normal;font-weight:normal;font-size:10.58333302px;line-height:1.25;font-family:sans-serif;letter-spacing:0px;word-spacing:0px;fill:#e64017;fill-opacity:1;stroke:none;stroke-width:0.99999994"
       d="m 33.623047,4.7421875 c -1.26302,0 -2.454428,0.097567 -3.574219,0.2929687 -1.119795,0.1822867 -2.20703,0.4687571 -3.261719,0.859375 V 9.390625 c 1.054689,-0.5729159 2.096353,-0.99609 3.125,-1.2695312 1.028648,-0.2734489 2.076823,-0.4101563 3.144532,-0.4101563 2.356773,0 4.121088,0.6184936 5.292968,1.8554687 0.968098,1.0111258 1.530878,2.4608978 1.699219,4.3339848 -0.215182,1.524222 -0.665221,2.79975 -1.355469,3.820312 -0.413165,-0.386731 -0.853858,-0.724265 -1.33789,-0.988281 -1.158849,-0.638022 -2.539066,-0.957031 -4.140625,-0.957031 -1.575073,0 -2.968862,0.381367 -4.191406,1.123047 -0.369223,-0.735238 -0.644275,-1.568053 -0.816407,-2.509766 0.02637,0.108814 0.04547,0.216535 0.07617,0.326172 0.05798,0.210217 0.131616,0.414557 0.203125,0.621094 0.218495,0.006 0.438311,0.0177 0.65625,0.0098 1.090617,-0.03477 2.085184,-0.249341 2.992188,-0.625 -0.180964,-0.353953 -0.338114,-0.711558 -0.453125,-1.074219 -0.261317,-0.797166 -0.34008,-1.570469 -0.253907,-2.320312 -0.689389,0.307313 -1.448194,0.465162 -2.287109,0.455078 -0.380406,-7.56e-4 -0.768061,-0.04293 -1.160156,-0.109375 H 24.25 c -4e-6,0.0045 0,0.0091 0,0.01367 0,3.158642 0.711916,5.74985 2.119141,7.787109 -1.407225,2.03726 -2.119141,4.628467 -2.119141,7.78711 0,0.0045 -4e-6,0.0091 0,0.01367 h 3.730469 c 0.777709,0.186859 1.521425,0.256257 2.240234,0.228515 -0.01323,-0.0672 -0.03959,-0.134047 -0.05078,-0.201172 -0.137499,-0.831326 -0.09802,-1.610209 0.09961,-2.341797 -0.671579,0.189117 -1.385834,0.237422 -2.144531,0.144532 0.160453,-1.163926 0.460225,-2.181749 0.898438,-3.054688 1.222493,0.741594 2.616424,1.121094 4.191406,1.121094 1.601559,0 2.98178,-0.319009 4.140625,-0.957031 0.483751,-0.263863 0.924924,-0.599892 1.33789,-0.986329 0.745718,1.103047 1.222991,2.490525 1.414063,4.181641 v 6.208985 3.320312 h 3.59375 V 15.777344 c 0,-3.723957 -0.826824,-6.4908829 -2.480469,-8.3007815 -1.653641,-1.8229153 -4.18619,-2.734375 -7.597656,-2.734375 z M 65.443359,6.78125 c 0.337852,2.5086161 1.244225,4.578172 2.734375,6.199219 1.940104,2.109373 4.550782,3.164062 7.832032,3.164062 2.942706,0 5.266925,-0.95052 6.972656,-2.851562 1.501285,-1.64914 2.347162,-3.8194746 2.537109,-6.511719 h -3.560547 c -0.05189,1.8953915 -0.599507,3.41698 -1.652343,4.558594 -1.067706,1.171876 -2.486976,1.757812 -4.257813,1.757812 -2.005206,0 -3.613281,-0.566407 -4.824219,-1.699218 C 70.060243,10.297352 69.380613,8.7557621 69.175781,6.78125 Z m -65.35937463,0.5 c 0.33785197,2.5086161 1.24422443,4.578172 2.73437503,6.199219 1.9401033,2.109373 4.5507815,3.164062 7.8320316,3.164062 2.942706,0 5.266925,-0.95052 6.972656,-2.851562 1.501285,-1.64914 2.347162,-3.8194746 2.537109,-6.511719 h -3.560547 c -0.05189,1.8953915 -0.599507,3.41698 -1.652343,4.558594 -1.067706,1.171876 -2.486976,1.757812 -4.257813,1.757812 -2.0052055,0 -3.6132807,-0.566407 -4.8242186,-1.699218 C 4.7008678,10.797352 4.0212377,9.2557621 3.8164062,7.28125 Z M 105.7793,7.6523438 c 0,2.1354103 -0.56641,3.8216152 -1.69922,5.0585942 -1.11979,1.236982 -2.64973,1.855468 -4.589846,1.855468 -1.61458,0 -2.825524,-0.514321 -3.632812,-1.542968 -0.05994,-0.07733 -0.112485,-0.163096 -0.167969,-0.246094 h -4.042969 c 0.127746,0.396878 0.281156,0.765269 0.449219,1.117187 v 12.125 c 0,1.648207 0.202773,3.070945 0.59375,4.285157 h 4.042969 c -0.691869,-1.035028 -1.042969,-2.50527 -1.042969,-4.421876 v -8.68164 c 0.890722,0.321458 1.899211,0.490234 3.039063,0.490234 1.523444,0 2.858064,-0.319032 4.003904,-0.957031 1.15885,-0.651046 2.17449,-1.640624 3.04688,-2.96875 v 6.289063 5.048828 h -3.59375 v 1.115234 c 0.25636,0.536905 0.55441,1.028184 0.91015,1.455078 0.71149,0.853784 1.61056,1.466258 2.6836,1.853516 h 3.59375 V 7.6523438 Z M 52.376953,8.4511719 v 7.2597661 h 3.535156 V 8.4511719 Z m 0,7.2597661 h -3.535156 v 14.517578 h 3.535156 v -7.564454 c 0.755206,1.328123 1.738277,2.311197 2.949219,2.949219 1.21093,0.651043 2.68229,0.976563 4.414062,0.976563 0.247408,0 0.520842,-0.01966 0.820313,-0.05859 0.29949,-0.02608 0.631505,-0.07164 0.996094,-0.136719 l 0.01953,-3.691406 c -0.40365,0.234369 -0.846356,0.403652 -1.328125,0.507813 -0.468752,0.117203 -0.98958,0.175781 -1.5625,0.175781 -2.031251,0 -3.59375,-0.664062 -4.6875,-1.992188 -1.080722,-1.315105 -1.621094,-3.209636 -1.621094,-5.683593 z M 40.107422,15.369141 h 0.01172 v 7.419921 h -0.01172 l 1.584821,-3.093192 z m 25.164062,1.412109 c -0.0083,0.214677 -0.02539,0.424045 -0.02539,0.644531 0,0.684057 0.0449,1.333006 0.115234,1.962891 h 20.128906 c 0.01361,-0.279761 0.0293,-0.558964 0.0293,-0.84961 V 16.78125 H 68.996094 Z m -65.35937462,0.5 c -0.008315,0.214677 -0.02539063,0.424045 -0.02539063,0.644531 0,0.684057 0.04489737,1.333006 0.11523438,1.962891 H 20.130859 c 0.01361,-0.279761 0.0293,-0.558964 0.0293,-0.84961 V 17.28125 H 3.6367188 Z M 34.09375,18.783203 c 1.042081,0 1.958308,0.235599 2.757812,0.689453 -0.799505,0.453854 -1.715731,0.689453 -2.757812,0.689453 -1.042573,0 -1.958057,-0.23517 -2.753906,-0.689453 0.795849,-0.454283 1.711333,-0.689453 2.753906,-0.689453 z m 43.310547,0.925781 c -3.489581,0 -6.256511,1.015625 -8.300781,3.046875 -1.901745,1.901741 -2.900234,4.44044 -3.021485,7.597657 h 3.72461 c 0.156245,-2.473958 0.898432,-4.361978 2.226562,-5.664063 1.341147,-1.289061 3.203127,-1.933594 5.585938,-1.933594 1.380207,0 2.714845,0.169288 4.003906,0.507813 1.302085,0.338532 2.591147,0.84635 3.867187,1.523437 v -3.398437 c -1.28906,-0.546875 -2.610676,-0.963542 -3.964843,-1.25 -1.354167,-0.286451 -2.727866,-0.429688 -4.121094,-0.429688 z m -65.359375,0.5 c -3.4895812,0 -6.2565105,1.015625 -8.3007814,3.046875 -1.9017449,1.901741 -2.90023333,4.44044 -3.02148435,7.597657 H 4.4472656 c 0.1562457,-2.473958 0.8984328,-4.361978 2.2265625,-5.664063 1.3411465,-1.289061 3.2031268,-1.933594 5.5859379,-1.933594 1.380207,0 2.714845,0.169288 4.003906,0.507813 1.302085,0.338532 2.591147,0.84635 3.867187,1.523437 v -3.398437 c -1.28906,-0.546875 -2.610676,-0.963542 -3.964843,-1.25 -1.354167,-0.286451 -2.727866,-0.429688 -4.121094,-0.429688 z M 92.691406,30.3125 c 0.07892,0.244384 0.164975,0.482224 0.259766,0.708984 -0.0943,-0.227905 -0.180698,-0.464059 -0.259766,-0.708984 z m 0.277344,0.744141 c 0.09082,0.214488 0.185869,0.424436 0.291016,0.623047 -0.10424,-0.199371 -0.200874,-0.407985 -0.291016,-0.623047 z m 0.402344,0.816406 c 0.08039,0.141316 0.158068,0.285164 0.246094,0.417969 -0.08765,-0.133455 -0.166233,-0.275866 -0.246094,-0.417969 z"
       transform="matrix(0.26458333,0,0,0.26458333,51.988702,90.15723)"
       id="path846-7"
       inkscape:connector-curvature="0"
       sodipodi:nodetypes="sccccsccccscccccccccccscscccccccsccccccscsccsccccscccccsccccscccccsccccsccscsccccccccccccccccccccccsccccscccccccccsccsccccsccscccscscssccccsccccssccccsccccsccccccccc" />
  </g>
</svg>
