<?xml version="1.0" encoding="UTF-8" standalone="no"?>
<!-- Created with Inkscape (http://www.inkscape.org/) -->

<svg
   xmlns:dc="http://purl.org/dc/elements/1.1/"
   xmlns:cc="http://creativecommons.org/ns#"
   xmlns:rdf="http://www.w3.org/1999/02/22-rdf-syntax-ns#"
   xmlns:svg="http://www.w3.org/2000/svg"
   xmlns="http://www.w3.org/2000/svg"
   xmlns:sodipodi="http://sodipodi.sourceforge.net/DTD/sodipodi-0.dtd"
   xmlns:inkscape="http://www.inkscape.org/namespaces/inkscape"
   width="15.440918mm"
   height="10.290714mm"
   viewBox="0 0 15.440918 10.290714"
   version="1.1"
   id="svg1954"
   inkscape:version="0.92.4 (5da689c313, 2019-01-14)"
   sodipodi:docname="ffred-green.svg">
  <defs
     id="defs1948" />
  <sodipodi:namedview
     id="base"
     pagecolor="#ffffff"
     bordercolor="#666666"
     borderopacity="1.0"
     inkscape:pageopacity="0.0"
     inkscape:pageshadow="2"
     inkscape:zoom="15.839192"
     inkscape:cx="22.803806"
     inkscape:cy="21.605662"
     inkscape:document-units="mm"
     inkscape:current-layer="layer1"
     showgrid="false"
     fit-margin-top="0"
     fit-margin-left="0"
     fit-margin-right="0"
     fit-margin-bottom="2.1"
     inkscape:window-width="1920"
     inkscape:window-height="1058"
     inkscape:window-x="0"
     inkscape:window-y="0"
     inkscape:window-maximized="1" />
  <metadata
     id="metadata1951">
    <rdf:RDF>
      <cc:Work
         rdf:about="">
        <dc:format>image/svg+xml</dc:format>
        <dc:type
           rdf:resource="http://purl.org/dc/dcmitype/StillImage" />
        <dc:title />
      </cc:Work>
    </rdf:RDF>
  </metadata>
  <g
     inkscape:label="Layer 1"
     inkscape:groupmode="layer"
     id="layer1"
     transform="translate(-44.050468,-103.7508)">
    <path
       style="font-style:normal;font-weight:normal;font-size:10.58333302px;line-height:1.25;font-family:sans-serif;letter-spacing:0px;word-spacing:0px;fill:#8ce617;fill-opacity:1;stroke:none;stroke-width:0.99999994"
       d="M 39.095703 0.16796875 C 39.095699 0.17552781 39.095703 0.17981422 39.095703 0.18359375 C 39.095703 3.6211119 39.929041 6.3945141 41.595703 8.5039062 C 42.867795 10.126584 44.439292 11.119734 46.304688 11.494141 C 44.362092 11.840102 42.729704 12.838471 41.417969 14.511719 C 39.751303 16.621111 38.917969 19.394513 38.917969 22.832031 L 38.917969 22.847656 L 42.648438 22.847656 L 42.648438 22.832031 C 42.648438 20.188781 43.195313 18.118467 44.289062 16.621094 C 44.933515 15.720396 45.725967 15.09406 46.662109 14.730469 L 46.662109 28.753906 L 50.197266 28.753906 L 50.197266 14.521484 C 51.431729 14.817394 52.452663 15.514598 53.253906 16.621094 C 54.067945 17.748943 54.574509 19.202541 54.775391 20.980469 L 54.775391 18.982422 L 58.310547 18.982422 L 58.310547 4.4648438 L 54.953125 4.4648438 L 54.953125 2.0351562 C 54.752243 3.8130838 54.245687 5.2666824 53.431641 6.3945312 C 52.337879 7.9049438 50.840491 8.6601562 48.939453 8.6601562 C 47.038407 8.6601562 45.54753 7.9049438 44.466797 6.3945312 C 43.373047 4.897158 42.826172 2.8268441 42.826172 0.18359375 C 42.826172 0.17603469 42.826168 0.17174828 42.826172 0.16796875 L 39.095703 0.16796875 z M 14.304688 7.4101562 C 14.642539 9.9187799 15.548912 11.988336 17.039062 13.609375 C 18.979166 15.718767 21.589844 16.773438 24.871094 16.773438 C 27.8138 16.773438 30.138019 15.822902 31.84375 13.921875 C 33.345035 12.272716 34.190912 10.102427 34.380859 7.4101562 L 30.820312 7.4101562 C 30.76842 9.3055515 30.220805 10.827144 29.167969 11.96875 C 28.100264 13.14063 26.68099 13.726562 24.910156 13.726562 C 22.904947 13.726562 21.296875 13.160182 20.085938 12.027344 C 18.921571 10.926254 18.241941 9.3846948 18.037109 7.4101562 L 14.304688 7.4101562 z M 54.775391 8.2304688 L 54.775391 15.044922 C 54.035832 13.823152 53.122112 12.903932 52.023438 12.304688 C 51.34006 11.928446 50.56975 11.675862 49.732422 11.521484 C 50.640114 11.37294 51.469801 11.113597 52.201172 10.710938 C 53.216779 10.15698 54.067337 9.3175416 54.775391 8.2304688 z M 3.6074219 8.6855469 L 3.6074219 15.945312 L 7.1425781 15.945312 L 7.1425781 8.6855469 L 3.6074219 8.6855469 z M 3.6074219 15.945312 L 0.072265625 15.945312 L 0.072265625 30.462891 L 3.6074219 30.462891 L 3.6074219 22.898438 C 4.3626282 24.226563 5.3456989 25.209672 6.5566406 25.847656 C 7.767571 26.498718 9.2389312 26.824219 10.970703 26.824219 C 11.218111 26.824219 11.491545 26.80531 11.791016 26.765625 C 12.090505 26.739168 12.422525 26.693914 12.787109 26.628906 L 12.806641 22.9375 C 12.402991 23.171831 11.960284 23.341149 11.478516 23.445312 C 11.009763 23.562478 10.488935 23.621094 9.9160156 23.621094 C 7.8847652 23.621094 6.3222655 22.957032 5.2285156 21.628906 C 4.14779 20.31382 3.6074219 18.41924 3.6074219 15.945312 z M 14.132812 17.410156 C 14.124498 17.624833 14.107422 17.83419 14.107422 18.054688 C 14.107422 18.738744 14.152319 19.387682 14.222656 20.017578 L 34.351562 20.017578 C 34.365169 19.737893 34.380859 19.458614 34.380859 19.167969 L 34.380859 17.410156 L 17.857422 17.410156 L 14.132812 17.410156 z M 26.265625 20.337891 C 22.776044 20.337891 20.009115 21.353534 17.964844 23.384766 C 16.063099 25.286511 15.06461 27.825231 14.943359 30.982422 L 18.667969 30.982422 C 18.824214 28.508494 19.566401 26.620444 20.894531 25.318359 C 22.235678 24.029276 24.097658 23.384766 26.480469 23.384766 C 27.86068 23.384766 29.19531 23.554084 30.484375 23.892578 C 31.78646 24.231224 33.075522 24.738913 34.351562 25.416016 L 34.351562 22.017578 C 33.062498 21.47068 31.740886 21.054029 30.386719 20.767578 C 29.032552 20.48109 27.658857 20.337891 26.265625 20.337891 z "
       transform="matrix(0.26458333,0,0,0.26458333,44.050468,103.7508)"
       id="path848-2-9" />
  </g>
</svg>
